<svg width="78" height="73" viewBox="0 0 78 73" fill="none" xmlns="http://www.w3.org/2000/svg">
<path d="M36.7136 0.15418C40.5509 -0.171867 44.2811 0.393597 47.977 1.39798C54.9574 3.32681 61.2691 7.65094 65.6886 13.4159C68.81 17.4335 70.9823 22.1146 72.0409 27.1041C73.013 31.1612 73.1292 35.3532 72.5715 39.481C71.4179 37.3094 70.151 35.1957 68.9686 33.0391C68.756 32.5693 68.8057 31.9674 68.7357 31.46C68.2965 26.4201 66.4572 21.6559 63.6843 17.4641C61.556 14.3727 58.9081 11.6797 55.8601 9.50648C52.8957 7.45984 49.6061 5.9386 46.1333 5.00841C41.457 3.84199 36.5708 3.82753 31.8879 4.96625C28.3529 5.88984 25.0045 7.42628 21.9923 9.50682C17.9884 12.3808 14.5381 16.1941 12.314 20.6276C10.5447 24.0601 9.40431 27.8024 9.09885 31.663C9.04455 32.1042 9.07853 32.633 8.88389 33.0394C7.70166 35.195 6.43458 37.3087 5.2807 39.4814C4.71614 35.309 4.84625 31.0704 5.84185 26.9722C7.56362 18.8503 12.4373 11.4777 19.1222 6.64088C24.2504 2.82983 30.3855 0.701406 36.7136 0.15418Z" fill="url(#paint0_linear_237_1081)"/>
<path d="M11.4824 49.9591C14.5957 56.9725 20.4412 62.7422 27.4846 65.6879C32.2202 67.7572 37.5612 68.4322 42.6691 67.7572C47.2079 67.2179 51.6404 65.3828 55.4425 62.8575C60.1059 59.6228 63.9149 55.1738 66.2195 49.9457C66.9288 51.2247 67.4745 52.6086 68.1304 53.9175C68.1971 54.1203 68.4278 54.4019 68.3247 54.6105C63.6593 62.9874 55.3341 69.2346 45.9873 71.2008C42.1261 72.1483 38.1169 72.3157 34.1912 71.6933C31.2509 71.203 28.3151 70.4403 25.574 69.2436C19.2319 66.4857 13.8643 61.8616 10.1746 55.9773C9.91101 55.4814 9.50148 55.0052 9.33398 54.4702C9.78201 53.3999 10.3171 52.3611 10.7956 51.3033C11.0253 50.861 11.1769 50.3503 11.4824 49.9591Z" fill="url(#paint1_linear_237_1081)"/>
<path d="M41.1048 22.5421C39.7219 22.5072 38.337 22.5397 36.9541 22.5282C36.5288 23.9663 36.1118 25.3093 35.6605 26.7393C35.5501 26.9721 35.5501 27.0303 35.3845 27.4377C35.7157 27.8452 35.645 27.7093 35.9916 28.1362C36.2676 28.4272 36.2676 28.4272 36.5987 28.7182C36.6119 30.5151 36.656 32.2272 36.6342 34.024C36.2781 34.5814 35.7224 35.0169 35.2844 35.5094C35.2711 38.3982 35.292 41.2859 35.2743 44.1747L35.4071 44.1147C36.2124 43.5024 36.1572 43.5024 36.6342 43.1532C36.8747 46.0635 36.8747 46.0052 37.5238 49.3973C38.0619 51.3201 38.5363 53.2648 39.0338 55.1989C39.5376 53.267 40.0078 51.321 40.5469 49.3993C40.9587 46.8201 40.9035 46.8783 41.4368 43.1532C41.8417 43.5024 41.8969 43.5024 42.6442 44.11L42.792 44.1884C42.7866 41.2936 42.7964 38.4015 42.7866 35.5081C42.3484 35.0151 41.7929 34.5813 41.4368 34.025C41.4147 32.2256 41.4236 30.4241 41.4368 28.6259C42.1728 27.9616 42.2832 27.787 42.6144 27.4377C42.5592 27.1467 42.504 27.0303 42.4488 26.9139C42.3747 26.6811 42.4125 26.7975 42.3936 26.7393C41.9299 25.3137 41.5604 23.9639 41.1048 22.5421Z" fill="url(#paint2_linear_237_1081)"/>
<path d="M68.5417 35.4729L63.4633 32.1704L67.7736 40.7022L67.0364 43.2349L75.2772 58.959L77.939 56.0243L68.5417 35.4729Z" fill="url(#paint3_linear_237_1081)"/>
<path d="M9.58787 35.4742L14.7358 32.1716L10.3664 40.7035L11.1137 43.2361L2.76003 58.9603L0.0617743 56.0256L9.58787 35.4742Z" fill="url(#paint4_linear_237_1081)"/>
<path d="M11.2783 41.0051L13.4155 36.7823L24.1906 30.7626V31.661L27.1293 30.4032L25.0811 35.3448L22.4987 37.5909V39.4777L19.9162 40.2863L18.9367 43.6106L15.1075 49.0913L13.5046 46.5756L11.2783 41.0051Z" fill="url(#paint5_linear_237_1081)"/>
<path d="M66.7607 40.9952L64.6165 36.7763L53.8062 30.7622V31.6599L50.8579 30.4032L52.9128 35.3401L55.5037 37.5842V39.4692L58.0946 40.2771L59.0773 43.5983L62.919 49.0738L64.5272 46.5604L66.7607 40.9952Z" fill="url(#paint6_linear_237_1081)"/>
<path d="M25.7664 26.3167L18.7314 32.6958L25.054 29.0121V30.0004L28.0817 28.8324L27.9036 32.6958L30.308 32.4263L30.7533 31.7973L30.308 29.7309L31.7328 28.0238H33.2467L31.0204 30.5395L33.2467 39.7937H33.9591V35.3912L35.3839 33.9536V29.0121L34.2262 27.7542L36.0072 22.0939L35.3839 20.836V18.0508L34.7605 17.2422L34.2262 24.969L25.7664 26.3167Z" fill="url(#paint7_linear_237_1081)"/>
<path d="M52.2953 26.3131L59.2422 32.6672L52.9988 28.9979V29.9823L50.009 28.8189L50.1849 32.6672L47.8106 32.3987L47.3709 31.7722L47.8106 29.7139L46.4037 28.0135H44.9088L47.1071 30.5193L44.9088 39.7372H44.2053V35.352L42.7983 33.9201V28.9979L43.9415 27.745L42.1828 22.1069L42.7983 20.8539V18.0796L43.4139 17.2742L43.9415 24.9707L52.2953 26.3131Z" fill="url(#paint8_linear_237_1081)"/>
<path d="M33.3129 24.0515L26.456 25.1297L27.0794 20.3678L25.4764 21.6257L22.8049 20.9968L17.4619 24.3211L19.332 20.3678L24.3188 15.9654L33.8472 15.1567L33.3129 24.0515Z" fill="url(#paint9_linear_237_1081)"/>
<path d="M45.0122 24.0775L51.6672 25.1498L51.0622 20.4138L52.6179 21.6649L55.2108 21.0393L60.3965 24.3456L58.5815 20.4138L53.7415 16.0353L44.4936 15.2311L45.0122 24.0775Z" fill="url(#paint10_linear_237_1081)"/>
<path d="M33.9555 41.0486H33.4212L31.7293 46.0612L29.1468 50.1941L28.7906 52.0809L24.16 53.9677L24.8724 52.7997L19.7075 56.0342L18.5498 59.089L24.3381 60.0773L24.16 59.2686H24.8724L26.03 60.5265L27.0986 60.7062L34.0446 54.2372L34.9829 47.3207L36.0037 47.9962L35.5584 45.5704L34.2227 46.379L33.9555 41.0486Z" fill="url(#paint11_linear_237_1081)"/>
<path d="M44.2156 41.1972H44.7466L46.4284 46.1813L48.9953 50.2907L49.3493 52.1668L53.952 54.0428L53.2439 52.8814L58.3777 56.0975L59.5283 59.1349L53.775 60.1176L53.952 59.3136H53.2439L52.0932 60.5643L51.0311 60.743L44.1271 54.3108L43.1944 47.4337L42.1798 48.1053L42.6223 45.6933L43.95 46.4973L44.2156 41.1972Z" fill="url(#paint12_linear_237_1081)"/>
<defs>
<linearGradient id="paint0_linear_237_1081" x1="38.9265" y1="0.0617676" x2="38.9265" y2="39.4814" gradientUnits="userSpaceOnUse">
<stop stop-color="white"/>
<stop offset="1" stop-color="#79829B"/>
</linearGradient>
<linearGradient id="paint1_linear_237_1081" x1="38.8424" y1="49.9457" x2="38.8424" y2="72.0618" gradientUnits="userSpaceOnUse">
<stop stop-color="white"/>
<stop offset="1" stop-color="#79829B"/>
</linearGradient>
<linearGradient id="paint2_linear_237_1081" x1="39.0331" y1="22.5254" x2="39.0331" y2="55.1989" gradientUnits="userSpaceOnUse">
<stop stop-color="white"/>
<stop offset="1" stop-color="#D0EBFC"/>
</linearGradient>
<linearGradient id="paint3_linear_237_1081" x1="70.4455" y1="32.0158" x2="71.044" y2="59.0527" gradientUnits="userSpaceOnUse">
<stop stop-color="#00C0FC"/>
<stop offset="1" stop-color="#0056BA"/>
</linearGradient>
<linearGradient id="paint4_linear_237_1081" x1="7.65793" y1="32.0171" x2="7.06756" y2="59.0544" gradientUnits="userSpaceOnUse">
<stop stop-color="#00C0FC"/>
<stop offset="1" stop-color="#0056BA"/>
</linearGradient>
<linearGradient id="paint5_linear_237_1081" x1="19.2038" y1="30.4032" x2="19.2038" y2="49.0913" gradientUnits="userSpaceOnUse">
<stop stop-color="#00C0FC"/>
<stop offset="1" stop-color="#0056BA"/>
</linearGradient>
<linearGradient id="paint6_linear_237_1081" x1="58.8093" y1="30.4032" x2="58.8093" y2="49.0738" gradientUnits="userSpaceOnUse">
<stop stop-color="#00C0FC"/>
<stop offset="1" stop-color="#0056BA"/>
</linearGradient>
<linearGradient id="paint7_linear_237_1081" x1="27.3693" y1="17.2422" x2="27.3693" y2="39.7937" gradientUnits="userSpaceOnUse">
<stop stop-color="#00C0FC"/>
<stop offset="1" stop-color="#0056BA"/>
</linearGradient>
<linearGradient id="paint8_linear_237_1081" x1="50.7125" y1="17.2742" x2="50.7125" y2="39.7372" gradientUnits="userSpaceOnUse">
<stop stop-color="#00C0FC"/>
<stop offset="1" stop-color="#0056BA"/>
</linearGradient>
<linearGradient id="paint9_linear_237_1081" x1="25.6546" y1="15.1567" x2="25.6546" y2="25.1297" gradientUnits="userSpaceOnUse">
<stop stop-color="#00C0FC"/>
<stop offset="1" stop-color="#0056BA"/>
</linearGradient>
<linearGradient id="paint10_linear_237_1081" x1="52.4451" y1="15.2311" x2="52.4451" y2="25.1498" gradientUnits="userSpaceOnUse">
<stop stop-color="#00C0FC"/>
<stop offset="1" stop-color="#0056BA"/>
</linearGradient>
<linearGradient id="paint11_linear_237_1081" x1="27.2767" y1="41.0486" x2="27.2767" y2="60.7062" gradientUnits="userSpaceOnUse">
<stop stop-color="#00C0FC"/>
<stop offset="1" stop-color="#0056BA"/>
</linearGradient>
<linearGradient id="paint12_linear_237_1081" x1="50.854" y1="41.1972" x2="50.854" y2="60.743" gradientUnits="userSpaceOnUse">
<stop stop-color="#00C0FC"/>
<stop offset="1" stop-color="#0056BA"/>
</linearGradient>
</defs>
</svg>
