<svg width="55" height="55" viewBox="0 0 261 242" fill="none"  xmlns="http://www.w3.org/2000/svg">
<g filter="url(#filter0_d_65_334)">
<g filter="url(#filter1_i_65_334)">
<path d="M123.526 16.7683C134.765 15.8218 145.69 17.4632 156.514 20.3787C176.957 25.9777 195.443 38.5297 208.386 55.2642C217.528 66.9262 223.89 80.5144 226.99 94.998C229.837 106.775 230.178 118.943 228.544 130.925C225.166 124.622 221.455 118.486 217.992 112.226C217.37 110.862 217.515 109.115 217.31 107.642C216.024 93.0123 210.637 79.183 202.516 67.0151C196.283 58.0415 188.528 50.2243 179.601 43.9159C170.919 37.975 161.285 33.5591 151.114 30.859C137.418 27.4731 123.108 27.4312 109.393 30.7366C99.0401 33.4176 89.2333 37.8776 80.4115 43.9169C68.6852 52.2593 58.5802 63.3287 52.0664 76.1981C46.8846 86.1619 43.5447 97.0248 42.6501 108.231C42.4911 109.512 42.5906 111.047 42.0205 112.227C38.5581 118.484 34.8472 124.62 31.4678 130.926C29.8143 118.815 30.1954 106.511 33.1112 94.615C38.1538 71.0391 52.4275 49.638 72.0058 35.5977C87.0248 24.5351 104.993 18.3567 123.526 16.7683Z" fill="url(#paint0_linear_65_334)"/>
<path d="M49.6309 161.341C58.7489 181.699 75.869 198.447 96.4972 206.998C110.367 213.005 126.009 214.964 140.968 213.005C154.261 211.439 167.243 206.112 178.378 198.782C192.036 189.392 203.192 176.478 209.941 161.302C212.019 165.014 213.617 169.032 215.538 172.831C215.733 173.42 216.409 174.237 216.107 174.843C202.443 199.159 178.061 217.293 150.687 223.001C139.378 225.751 127.636 226.237 116.139 224.43C107.527 223.007 98.9294 220.793 90.9015 217.319C72.3271 209.314 56.607 195.891 45.8007 178.81C45.0288 177.371 43.8294 175.988 43.3389 174.436C44.651 171.329 46.2182 168.313 47.6196 165.243C48.2922 163.959 48.7363 162.476 49.6309 161.341Z" fill="url(#paint1_linear_65_334)"/>
<path d="M136.385 81.7549C132.335 81.6538 128.279 81.7481 124.229 81.7147C122.983 85.8892 121.762 89.7875 120.44 93.9385C120.117 94.6143 120.117 94.7832 119.632 95.966C120.602 97.1487 120.395 96.7544 121.41 97.9934C122.218 98.8382 122.218 98.8382 123.188 99.683C123.227 104.899 123.356 109.869 123.292 115.084C122.249 116.702 120.622 117.967 119.339 119.396C119.3 127.782 119.361 136.164 119.309 144.55L119.698 144.375C122.057 142.598 121.895 142.598 123.292 141.584C123.996 150.032 123.996 149.863 125.897 159.71C127.473 165.291 128.863 170.936 130.32 176.55C131.795 170.943 133.172 165.294 134.751 159.716C135.957 152.229 135.795 152.398 137.357 141.584C138.543 142.598 138.705 142.598 140.894 144.362L141.326 144.589C141.311 136.187 141.339 127.791 141.311 119.392C140.027 117.961 138.4 116.702 137.357 115.087C137.293 109.864 137.319 104.635 137.357 99.415C139.513 97.4866 139.836 96.9797 140.806 95.966C140.645 95.1212 140.483 94.7832 140.321 94.4453C140.104 93.7695 140.215 94.1074 140.16 93.9385C138.802 89.8004 137.719 85.8823 136.385 81.7549Z" fill="url(#paint2_linear_65_334)"/>
</g>
<g filter="url(#filter2_i_65_334)">
<path d="M216.74 119.291L201.867 109.705L214.491 134.471L212.332 141.823L236.467 187.466L244.262 178.948L216.74 119.291Z" fill="url(#paint3_linear_65_334)"/>
<path d="M44.0801 119.294L59.157 109.708L46.3603 134.474L48.549 141.826L24.0832 187.469L16.1808 178.951L44.0801 119.294Z" fill="url(#paint4_linear_65_334)"/>
<path d="M49.0308 135.349L55.2901 123.091L86.8474 105.617V108.225L95.454 104.574L89.4555 118.918L81.8921 125.438V130.915L74.3288 133.262L71.46 142.912L60.2454 158.821L55.5509 151.519L49.0308 135.349Z" fill="url(#paint5_linear_65_334)"/>
<path d="M211.525 135.32L205.246 123.073L173.585 105.616V108.222L164.95 104.574L170.968 118.905L178.556 125.419V130.89L186.145 133.235L189.023 142.876L200.274 158.77L204.984 151.475L211.525 135.32Z" fill="url(#paint6_linear_65_334)"/>
<path d="M91.4625 92.7133L70.8589 111.23L89.376 100.537V103.406L98.2434 100.016L97.7218 111.23L104.763 110.448L106.068 108.622L104.763 102.624L108.936 97.6686H113.37L106.85 104.971L113.37 131.834H115.456V119.055L119.629 114.882V100.537L116.239 96.8862L121.455 80.4555L119.629 76.8043V68.7193L117.804 66.3721L116.239 88.8013L91.4625 92.7133Z" fill="url(#paint7_linear_65_334)"/>
<path d="M169.158 92.7013L189.504 111.146L171.219 100.495V103.352L162.462 99.9752L162.977 111.146L156.024 110.366L154.736 108.548L156.024 102.573L151.903 97.6372H147.525L153.964 104.911L147.525 131.669H145.465V118.939L141.344 114.783V100.495L144.692 96.8578L139.542 80.4916L141.344 76.8546V68.8014L143.147 66.4634L144.692 88.8046L169.158 92.7013Z" fill="url(#paint8_linear_65_334)"/>
<path d="M113.563 86.137L93.4809 89.2667L95.3065 75.4441L90.6121 79.0953L82.7879 77.2697L67.1396 86.9195L72.6165 75.4441L87.2216 62.6646L115.128 60.3174L113.563 86.137Z" fill="url(#paint9_linear_65_334)"/>
<path d="M147.83 86.2129L167.321 89.3256L165.549 75.5781L170.105 79.2095L177.699 77.3938L192.886 86.9911L187.571 75.5781L173.396 62.8682L146.311 60.5337L147.83 86.2129Z" fill="url(#paint10_linear_65_334)"/>
<path d="M115.446 135.475H113.882L108.926 150.026L101.363 162.023L100.32 167.5L86.7578 172.976L88.8443 169.586L73.7176 178.975L70.3271 187.842L87.2794 190.711L86.7578 188.364H88.8443L92.2347 192.015L95.3644 192.537L115.707 173.759L118.455 153.682L121.445 155.643L120.141 148.601L116.229 150.948L115.446 135.475Z" fill="url(#paint11_linear_65_334)"/>
<path d="M145.497 135.907H147.053L151.978 150.375L159.496 162.304L160.533 167.749L174.013 173.195L171.939 169.824L186.974 179.16L190.344 187.976L173.494 190.829L174.013 188.495H171.939L168.569 192.126L165.458 192.644L145.238 173.973L142.507 154.01L139.535 155.96L140.831 148.958L144.72 151.292L145.497 135.907Z" fill="url(#paint12_linear_65_334)"/>
</g>
</g>
<defs>
<filter id="filter0_d_65_334" x="0.406502" y="0.725838" width="259.63" height="240.548" filterUnits="userSpaceOnUse" color-interpolation-filters="sRGB">
<feFlood flood-opacity="0" result="BackgroundImageFix"/>
<feColorMatrix in="SourceAlpha" type="matrix" values="0 0 0 0 0 0 0 0 0 0 0 0 0 0 0 0 0 0 127 0" result="hardAlpha"/>
<feOffset/>
<feGaussianBlur stdDeviation="7.88708"/>
<feComposite in2="hardAlpha" operator="out"/>
<feColorMatrix type="matrix" values="0 0 0 0 0 0 0 0 0 1 0 0 0 0 1 0 0 0 0.25 0"/>
<feBlend mode="normal" in2="BackgroundImageFix" result="effect1_dropShadow_65_334"/>
<feBlend mode="normal" in="SourceGraphic" in2="effect1_dropShadow_65_334" result="shape"/>
</filter>
<filter id="filter1_i_65_334" x="30.4912" y="16.5" width="199.032" height="209" filterUnits="userSpaceOnUse" color-interpolation-filters="sRGB">
<feFlood flood-opacity="0" result="BackgroundImageFix"/>
<feBlend mode="normal" in="SourceGraphic" in2="BackgroundImageFix" result="shape"/>
<feColorMatrix in="SourceAlpha" type="matrix" values="0 0 0 0 0 0 0 0 0 0 0 0 0 0 0 0 0 0 127 0" result="hardAlpha"/>
<feOffset/>
<feGaussianBlur stdDeviation="1.38024"/>
<feComposite in2="hardAlpha" operator="arithmetic" k2="-1" k3="1"/>
<feColorMatrix type="matrix" values="0 0 0 0 0 0 0 0 0 0 0 0 0 0 0 0 0 0 1 0"/>
<feBlend mode="normal" in2="shape" result="effect1_innerShadow_65_334"/>
</filter>
<filter id="filter2_i_65_334" x="16.1807" y="60.3174" width="228.082" height="132.327" filterUnits="userSpaceOnUse" color-interpolation-filters="sRGB">
<feFlood flood-opacity="0" result="BackgroundImageFix"/>
<feBlend mode="normal" in="SourceGraphic" in2="BackgroundImageFix" result="shape"/>
<feColorMatrix in="SourceAlpha" type="matrix" values="0 0 0 0 0 0 0 0 0 0 0 0 0 0 0 0 0 0 127 0" result="hardAlpha"/>
<feOffset/>
<feGaussianBlur stdDeviation="1.375"/>
<feComposite in2="hardAlpha" operator="arithmetic" k2="-1" k3="1"/>
<feColorMatrix type="matrix" values="0 0 0 0 0 0 0 0 0 1 0 0 0 0 0.94 0 0 0 1 0"/>
<feBlend mode="normal" in2="shape" result="effect1_innerShadow_65_334"/>
</filter>
<linearGradient id="paint0_linear_65_334" x1="130.007" y1="16.5" x2="130.007" y2="130.926" gradientUnits="userSpaceOnUse">
<stop stop-color="white"/>
<stop offset="1" stop-color="#79829B"/>
</linearGradient>
<linearGradient id="paint1_linear_65_334" x1="129.761" y1="161.302" x2="129.761" y2="225.5" gradientUnits="userSpaceOnUse">
<stop stop-color="white"/>
<stop offset="1" stop-color="#79829B"/>
</linearGradient>
<linearGradient id="paint2_linear_65_334" x1="130.318" y1="81.7065" x2="130.318" y2="176.55" gradientUnits="userSpaceOnUse">
<stop stop-color="white"/>
<stop offset="1" stop-color="#D0EBFC"/>
</linearGradient>
<linearGradient id="paint3_linear_65_334" x1="222.316" y1="109.256" x2="224.038" y2="187.739" gradientUnits="userSpaceOnUse">
<stop stop-color="#00C0FC"/>
<stop offset="1" stop-color="#0039BA"/>
</linearGradient>
<linearGradient id="paint4_linear_65_334" x1="38.4278" y1="109.259" x2="36.7293" y2="187.743" gradientUnits="userSpaceOnUse">
<stop stop-color="#00C0FC"/>
<stop offset="1" stop-color="#0039BA"/>
</linearGradient>
<linearGradient id="paint5_linear_65_334" x1="72.2424" y1="104.574" x2="72.2424" y2="158.821" gradientUnits="userSpaceOnUse">
<stop stop-color="#00C0FC"/>
<stop offset="1" stop-color="#0039BA"/>
</linearGradient>
<linearGradient id="paint6_linear_65_334" x1="188.238" y1="104.574" x2="188.238" y2="158.77" gradientUnits="userSpaceOnUse">
<stop stop-color="#00C0FC"/>
<stop offset="1" stop-color="#0039BA"/>
</linearGradient>
<linearGradient id="paint7_linear_65_334" x1="96.1569" y1="66.3721" x2="96.1569" y2="131.834" gradientUnits="userSpaceOnUse">
<stop stop-color="#00C0FC"/>
<stop offset="1" stop-color="#0039BA"/>
</linearGradient>
<linearGradient id="paint8_linear_65_334" x1="164.523" y1="66.4634" x2="164.523" y2="131.669" gradientUnits="userSpaceOnUse">
<stop stop-color="#00C0FC"/>
<stop offset="1" stop-color="#0039BA"/>
</linearGradient>
<linearGradient id="paint9_linear_65_334" x1="91.1337" y1="60.3174" x2="91.1337" y2="89.2667" gradientUnits="userSpaceOnUse">
<stop stop-color="#00C0FC"/>
<stop offset="1" stop-color="#0039BA"/>
</linearGradient>
<linearGradient id="paint10_linear_65_334" x1="169.599" y1="60.5337" x2="169.599" y2="89.3256" gradientUnits="userSpaceOnUse">
<stop stop-color="#00C0FC"/>
<stop offset="1" stop-color="#0039BA"/>
</linearGradient>
<linearGradient id="paint11_linear_65_334" x1="95.886" y1="135.475" x2="95.886" y2="192.537" gradientUnits="userSpaceOnUse">
<stop stop-color="#00C0FC"/>
<stop offset="1" stop-color="#0039BA"/>
</linearGradient>
<linearGradient id="paint12_linear_65_334" x1="164.94" y1="135.907" x2="164.94" y2="192.644" gradientUnits="userSpaceOnUse">
<stop stop-color="#00C0FC"/>
<stop offset="1" stop-color="#0039BA"/>
</linearGradient>
</defs>
</svg>