<svg width="271" height="304" viewBox="0 0 271 304" fill="none" xmlns="http://www.w3.org/2000/svg">
<path d="M50.4433 249.226C48.8433 254.901 46.3452 261.509 44.7961 267.203C31.6515 268.317 19.4469 268.682 6.33529 270.143C4.29484 268.392 2.27536 266.61 0.276855 264.798C3.9323 249.025 7.73005 233.289 11.6701 217.589C10.2993 215.382 9.6162 214.245 8.24541 212C23.826 213.716 39.429 215.183 55.0546 216.399C56.4029 218.239 57.113 219.146 58.4838 220.942C57.1954 225.356 55.9205 229.775 54.6591 234.198C48.4178 234.061 42.1766 233.916 35.9354 233.763C36.8343 230.394 37.7526 227.026 38.6905 223.66L29.3601 223.087C26.1241 235.153 22.9781 247.243 19.9219 259.357L29.3601 258.736C30.1601 255.743 30.9661 252.751 31.7781 249.761C37.9923 249.57 44.2141 249.391 50.4433 249.226Z" fill="url(#paint0_linear_130_489)"/>
<path d="M59.3166 255.307C57.4204 253.905 56.4865 253.19 54.5797 251.739C57.5018 241.427 60.4958 231.142 63.5617 220.885C62.5005 219.471 61.9415 218.761 60.859 217.317C73.1558 218.182 85.4608 218.85 97.7741 219.321C98.8743 220.554 99.4262 221.167 100.526 222.385C97.418 231.732 94.3521 241.1 91.3286 250.487C89.2555 251.747 88.2155 252.367 86.1424 253.683C77.2017 254.124 68.2597 254.666 59.3166 255.307ZM77.5247 224.284C74.9965 232.305 72.5202 240.348 70.0957 248.411C72.5768 248.311 75.0531 248.213 77.5247 248.118C79.9327 240.245 82.3855 232.387 84.883 224.543C82.4279 224.461 79.9751 224.374 77.5247 224.284Z" fill="url(#paint1_linear_130_489)"/>
<path d="M139.876 231.756C134.938 231.756 129.999 231.75 125.061 231.738C125.754 229.614 126.449 227.49 127.144 225.365C124.689 225.349 122.235 225.328 119.783 225.301C118.839 228.028 117.896 230.752 116.952 233.475C123.165 233.495 129.375 233.506 135.585 233.508C136.646 234.636 137.156 235.219 138.199 236.362C136.367 241.726 134.534 247.093 132.702 252.462C122.287 252.52 111.878 252.717 101.475 253.053C99.611 251.785 98.6806 251.146 96.8198 249.857C97.7019 247.185 98.5886 244.513 99.4801 241.84C104.374 241.783 109.266 241.736 114.158 241.701L112.339 247.195L119.793 247.097C120.706 244.39 121.622 241.683 122.542 238.975C117.16 238.975 111.778 238.994 106.396 239.032C104.429 237.708 103.442 237.043 101.475 235.693C102.912 231.286 104.36 226.884 105.82 222.484C104.758 221.296 104.224 220.698 103.159 219.499C115.475 219.875 127.792 220.057 140.11 220.044L142.805 222.89L139.876 231.756Z" fill="url(#paint2_linear_130_489)"/>
<path d="M138.679 252.457C142.014 242.593 145.342 232.727 148.662 222.858L145.991 220.02C152.203 219.962 158.414 219.858 164.624 219.708C165.707 220.862 166.248 221.437 167.327 222.599L167.772 240.233C171.749 233.27 175.666 226.267 179.525 219.226C185.333 218.991 191.14 218.715 196.944 218.399C198.026 219.599 198.564 220.2 199.647 221.407C196.364 232.206 192.996 242.974 189.543 253.712C184.649 253.479 179.757 253.275 174.865 253.1C177.578 244.828 180.253 236.535 182.892 228.22C178.357 236.507 173.731 244.737 169.014 252.912C166.132 252.824 163.249 252.75 160.365 252.69L159.834 233.431C157.688 239.813 155.529 246.19 153.357 252.562C148.465 252.507 143.573 252.472 138.679 252.457Z" fill="url(#paint3_linear_130_489)"/>
<path d="M195.571 253.994C198.981 243.08 202.304 232.133 205.54 221.154C204.479 219.902 203.973 219.274 202.926 218.045C207.815 217.739 212.702 217.407 217.586 217.049C218.686 218.334 219.234 218.985 220.331 220.297C217.076 231.878 213.711 243.421 210.235 254.926C205.35 254.588 200.463 254.277 195.571 253.994Z" fill="url(#paint4_linear_130_489)"/>
<path d="M262.933 248.7C261.383 254.198 258.962 261.179 257.461 266.695C244.726 267.775 232.901 267.55 220.197 268.966C218.22 267.269 216.264 265.543 214.327 263.787C217.869 248.505 221.549 233.258 225.366 218.047C224.038 215.909 223.376 214.807 222.048 212.632C237.144 214.295 251.878 214.524 267.018 215.702C268.324 217.484 269.395 219.556 270.723 221.296C269.475 225.572 268.24 229.854 267.018 234.139C260.97 234.007 254.923 233.866 248.876 233.718C249.747 230.454 250.637 227.191 251.546 223.929L242.506 223.374C239.37 235.065 236.322 246.779 233.361 258.516L242.506 257.914C243.281 255.014 244.062 252.115 244.848 249.218C250.869 249.033 256.898 248.86 262.933 248.7Z" fill="url(#paint5_linear_130_489)"/>
<path d="M87.4315 286.578L90.901 303.193H79.4108L75.8699 286.534H73.6759L69.4615 303.193H57.1039L65.6144 266.752L63.4306 263.151H94.8093L97.0747 266.632L92.4418 286.578H87.4315ZM77.5944 269.799L75.1862 279.853H81.5129L83.8497 269.799H77.5944Z" fill="url(#paint6_linear_130_489)"/>
<path d="M90.9966 294.237L101.711 265.924L99.9819 263.151H116.636L118.508 265.924L121.03 294.237H112.013L111.22 285.058H104.217L100.735 294.237H90.9966ZM106.215 279.832H110.752L109.879 270.155L106.215 279.832Z" fill="url(#paint7_linear_130_489)"/>
<path d="M122.124 294.237L123.312 289.765L120.679 265.983L118.919 263.151H147.982L149.791 265.764L148.284 269.42H134.411L131.867 271.155L130.391 276.089H142.503L141.905 278.702L138.852 281.315H130.391L133.254 294.262L122.124 294.237Z" fill="url(#paint8_linear_130_489)"/>
<path d="M153.194 294.203L151.114 289.765L155.37 269.43H147.41L148.872 266.802L147.183 263.151H173.972L175.623 265.764L174.694 269.43H165.188L159.332 294.237L153.194 294.203Z" fill="url(#paint9_linear_130_489)"/>
<path d="M206.493 277.529H193.979L195.735 269.72H189.524L187.119 279.676H202.89L205.102 283.181L200.454 302.931H174.068L170.13 298.994L172.383 289.631H184.785L183.242 296.243H189.545L191.858 286.363H178.229L174.068 282.383L177.742 266.613L175.489 263.151H206.696L208.989 266.656L206.493 277.529Z" fill="url(#paint10_linear_130_489)"/>
<path d="M128.939 0.27197C140.333 -0.687586 151.409 0.976573 162.383 3.93246C183.11 9.60903 201.852 22.3349 214.974 39.3013C224.243 51.1249 230.693 64.9014 233.836 79.5857C236.723 91.5257 237.068 103.863 235.412 116.011C231.986 109.62 228.225 103.399 224.714 97.0522C224.083 95.6696 224.23 93.8983 224.022 92.4051C222.718 77.5724 217.257 63.5515 209.023 51.215C202.703 42.1171 194.841 34.1916 185.791 27.7958C176.988 21.7725 167.221 17.2955 156.909 14.558C143.023 11.1252 128.515 11.0826 114.61 14.4339C104.113 17.152 94.1706 21.6738 85.2266 27.7968C73.3377 36.2548 63.0927 47.4776 56.4887 60.5253C51.235 70.6272 47.8489 81.6405 46.9419 93.0023C46.7806 94.3009 46.8815 95.8572 46.3036 97.0532C42.7932 103.397 39.0308 109.618 35.6046 116.012C33.9282 103.733 34.3145 91.2584 37.2708 79.1973C42.3833 55.2948 56.8547 33.5972 76.7043 19.3623C91.9315 8.14641 110.149 1.88245 128.939 0.27197Z" fill="url(#paint11_linear_130_489)"/>
<path d="M54.0189 146.848C63.2634 167.488 80.6206 184.469 101.535 193.138C115.596 199.228 131.455 201.214 146.622 199.228C160.099 197.641 173.261 192.24 184.55 184.808C198.398 175.288 209.708 162.195 216.551 146.808C218.657 150.572 220.277 154.645 222.225 158.497C222.423 159.094 223.108 159.923 222.802 160.537C208.948 185.19 184.228 203.576 156.475 209.362C145.01 212.151 133.105 212.643 121.449 210.812C112.718 209.369 104.001 207.124 95.8614 203.602C77.0297 195.486 61.0917 181.877 50.1357 164.559C49.3531 163.1 48.1371 161.698 47.6398 160.124C48.9701 156.974 50.559 153.917 51.9798 150.804C52.6617 149.502 53.1119 147.999 54.0189 146.848Z" fill="url(#paint12_linear_130_489)"/>
<path d="M141.976 66.1596C137.869 66.0571 133.757 66.1527 129.651 66.1189C128.388 70.3512 127.15 74.3035 125.81 78.512C125.482 79.1972 125.482 79.3685 124.99 80.5676C125.974 81.7667 125.764 81.367 126.793 82.6232C127.612 83.4797 127.612 83.4797 128.596 84.3362C128.635 89.6242 128.766 94.6629 128.701 99.951C127.644 101.591 125.994 102.873 124.693 104.322C124.654 112.824 124.716 121.323 124.663 129.825L125.057 129.648C127.449 127.846 127.285 127.846 128.701 126.818C129.415 135.383 129.415 135.212 131.342 145.195C132.94 150.853 134.349 156.577 135.826 162.269C137.322 156.583 138.718 150.856 140.319 145.2C141.542 137.61 141.378 137.781 142.962 126.818C144.164 127.846 144.328 127.846 146.547 129.634L146.985 129.865C146.97 121.346 146.998 112.834 146.97 104.319C145.668 102.868 144.019 101.591 142.962 99.9541C142.896 94.6583 142.922 89.3564 142.962 84.0644C145.147 82.1093 145.475 81.5954 146.458 80.5676C146.294 79.7111 146.13 79.3685 145.966 79.0259C145.746 78.3407 145.859 78.6833 145.803 78.512C144.426 74.3166 143.329 70.3443 141.976 66.1596Z" fill="url(#paint13_linear_130_489)"/>
<path d="M223.445 104.215L208.366 94.4959L221.164 119.605L218.975 127.059L243.445 173.335L251.349 164.698L223.445 104.215Z" fill="url(#paint14_linear_130_489)"/>
<path d="M48.3919 104.219L63.6776 94.4998L50.7036 119.609L52.9226 127.063L28.1179 173.339L20.1059 164.702L48.3919 104.219Z" fill="url(#paint15_linear_130_489)"/>
<path d="M53.4117 120.497L59.7578 108.069L91.7524 90.3528V92.997L100.478 89.2952L94.3966 103.838L86.7285 110.449V116.001L79.0603 118.381L76.1517 128.165L64.7817 144.294L60.0222 136.89L53.4117 120.497Z" fill="url(#paint16_linear_130_489)"/>
<path d="M218.157 120.467L211.791 108.051L179.691 90.3518V92.9936L170.937 89.2952L177.039 103.825L184.732 110.429V115.976L192.425 118.354L195.343 128.128L206.75 144.243L211.525 136.846L218.157 120.467Z" fill="url(#paint17_linear_130_489)"/>
<path d="M96.4315 77.2688L75.5425 96.0425L94.3162 85.2013V88.1099L103.306 84.6725L102.778 96.0425L109.917 95.2492L111.239 93.3983L109.917 87.3167L114.148 82.2927H118.643L112.032 89.6964L118.643 116.932H120.758V103.975L124.989 99.7443V85.2013L121.551 81.4995L126.84 64.8411L124.989 61.1392V52.9423L123.138 50.5625L121.551 73.3025L96.4315 77.2688Z" fill="url(#paint18_linear_130_489)"/>
<path d="M175.204 77.258L195.832 95.9581L177.293 85.1594V88.0566L168.415 84.6327L168.938 95.9581L161.888 95.1679L160.582 93.3242L161.888 87.2665L157.71 82.2622H153.271L159.799 89.6369L153.271 116.765H151.182V103.859L147.005 99.6454V85.1594L150.399 81.4721L145.177 64.8791L147.005 61.1917V53.0269L148.832 50.6565L150.399 73.3073L175.204 77.258Z" fill="url(#paint19_linear_130_489)"/>
<path d="M118.837 70.6022L98.477 73.7752L100.328 59.7611L95.5684 63.4629L87.6359 61.612L71.7708 71.3955L77.3235 59.7611L92.131 46.8046L120.424 44.4248L118.837 70.6022Z" fill="url(#paint20_linear_130_489)"/>
<path d="M153.579 70.6781L173.34 73.8339L171.543 59.8959L176.163 63.5777L183.862 61.7368L199.26 71.4671L193.87 59.8959L179.499 47.0099L152.039 44.6431L153.579 70.6781Z" fill="url(#paint21_linear_130_489)"/>
<path d="M120.748 120.625H119.162L114.138 135.377L106.469 147.54L105.412 153.093L91.662 158.645L93.7774 155.208L78.4411 164.727L75.0037 173.717L92.1909 176.626L91.662 174.246H93.7774L97.2148 177.948L100.388 178.477L121.012 159.439L123.799 139.083L126.83 141.071L125.508 133.932L121.541 136.312L120.748 120.625Z" fill="url(#paint22_linear_130_489)"/>
<path d="M151.214 121.062H152.791L157.785 135.73L165.407 147.824L166.458 153.345L180.125 158.867L178.022 155.449L193.266 164.914L196.683 173.853L179.599 176.745L180.125 174.379H178.022L174.606 178.059L171.452 178.585L150.951 159.655L148.182 139.416L145.169 141.393L146.483 134.294L150.426 136.66L151.214 121.062Z" fill="url(#paint23_linear_130_489)"/>
<defs>
<linearGradient id="paint0_linear_130_489" x1="29.3803" y1="212" x2="29.3803" y2="270.143" gradientUnits="userSpaceOnUse">
<stop stop-color="white"/>
<stop offset="1" stop-color="#79829B"/>
</linearGradient>
<linearGradient id="paint1_linear_130_489" x1="77.5531" y1="217.317" x2="77.5531" y2="255.307" gradientUnits="userSpaceOnUse">
<stop stop-color="white"/>
<stop offset="1" stop-color="#79829B"/>
</linearGradient>
<linearGradient id="paint2_linear_130_489" x1="119.813" y1="219.499" x2="119.813" y2="253.053" gradientUnits="userSpaceOnUse">
<stop stop-color="white"/>
<stop offset="1" stop-color="#79829B"/>
</linearGradient>
<linearGradient id="paint3_linear_130_489" x1="169.163" y1="218.399" x2="169.163" y2="253.712" gradientUnits="userSpaceOnUse">
<stop stop-color="white"/>
<stop offset="1" stop-color="#79829B"/>
</linearGradient>
<linearGradient id="paint4_linear_130_489" x1="207.951" y1="217.049" x2="207.951" y2="254.926" gradientUnits="userSpaceOnUse">
<stop stop-color="white"/>
<stop offset="1" stop-color="#79829B"/>
</linearGradient>
<linearGradient id="paint5_linear_130_489" x1="242.525" y1="212.632" x2="242.525" y2="268.966" gradientUnits="userSpaceOnUse">
<stop stop-color="white"/>
<stop offset="1" stop-color="#79829B"/>
</linearGradient>
<linearGradient id="paint6_linear_130_489" x1="77.0893" y1="263.151" x2="77.0893" y2="303.193" gradientUnits="userSpaceOnUse">
<stop stop-color="white"/>
<stop offset="1" stop-color="#79829B"/>
</linearGradient>
<linearGradient id="paint7_linear_130_489" x1="106.013" y1="263.151" x2="106.013" y2="294.237" gradientUnits="userSpaceOnUse">
<stop stop-color="white"/>
<stop offset="1" stop-color="#79829B"/>
</linearGradient>
<linearGradient id="paint8_linear_130_489" x1="134.355" y1="263.151" x2="134.355" y2="294.262" gradientUnits="userSpaceOnUse">
<stop stop-color="white"/>
<stop offset="1" stop-color="#79829B"/>
</linearGradient>
<linearGradient id="paint9_linear_130_489" x1="161.403" y1="263.151" x2="161.403" y2="294.237" gradientUnits="userSpaceOnUse">
<stop stop-color="white"/>
<stop offset="1" stop-color="#79829B"/>
</linearGradient>
<linearGradient id="paint10_linear_130_489" x1="189.56" y1="263.151" x2="189.56" y2="302.931" gradientUnits="userSpaceOnUse">
<stop stop-color="white"/>
<stop offset="1" stop-color="#79829B"/>
</linearGradient>
<linearGradient id="paint11_linear_130_489" x1="135.509" y1="0" x2="135.509" y2="116.012" gradientUnits="userSpaceOnUse">
<stop stop-color="white"/>
<stop offset="1" stop-color="#79829B"/>
</linearGradient>
<linearGradient id="paint12_linear_130_489" x1="135.26" y1="146.808" x2="135.26" y2="211.896" gradientUnits="userSpaceOnUse">
<stop stop-color="white"/>
<stop offset="1" stop-color="#79829B"/>
</linearGradient>
<linearGradient id="paint13_linear_130_489" x1="135.824" y1="66.1106" x2="135.824" y2="162.269" gradientUnits="userSpaceOnUse">
<stop stop-color="white"/>
<stop offset="1" stop-color="#D0EBFC"/>
</linearGradient>
<linearGradient id="paint14_linear_130_489" x1="229.098" y1="94.041" x2="230.844" y2="173.611" gradientUnits="userSpaceOnUse">
<stop stop-color="#00C0FC"/>
<stop offset="1" stop-color="#0039BA"/>
</linearGradient>
<linearGradient id="paint15_linear_130_489" x1="42.6612" y1="94.0449" x2="40.9392" y2="173.616" gradientUnits="userSpaceOnUse">
<stop stop-color="#00C0FC"/>
<stop offset="1" stop-color="#0039BA"/>
</linearGradient>
<linearGradient id="paint16_linear_130_489" x1="76.945" y1="89.2952" x2="76.945" y2="144.294" gradientUnits="userSpaceOnUse">
<stop stop-color="#00C0FC"/>
<stop offset="1" stop-color="#0039BA"/>
</linearGradient>
<linearGradient id="paint17_linear_130_489" x1="194.547" y1="89.2952" x2="194.547" y2="144.243" gradientUnits="userSpaceOnUse">
<stop stop-color="#00C0FC"/>
<stop offset="1" stop-color="#0039BA"/>
</linearGradient>
<linearGradient id="paint18_linear_130_489" x1="101.191" y1="50.5625" x2="101.191" y2="116.932" gradientUnits="userSpaceOnUse">
<stop stop-color="#00C0FC"/>
<stop offset="1" stop-color="#0039BA"/>
</linearGradient>
<linearGradient id="paint19_linear_130_489" x1="170.504" y1="50.6565" x2="170.504" y2="116.765" gradientUnits="userSpaceOnUse">
<stop stop-color="#00C0FC"/>
<stop offset="1" stop-color="#0039BA"/>
</linearGradient>
<linearGradient id="paint20_linear_130_489" x1="96.0972" y1="44.4248" x2="96.0972" y2="73.7752" gradientUnits="userSpaceOnUse">
<stop stop-color="#00C0FC"/>
<stop offset="1" stop-color="#0039BA"/>
</linearGradient>
<linearGradient id="paint21_linear_130_489" x1="175.649" y1="44.6431" x2="175.649" y2="73.8339" gradientUnits="userSpaceOnUse">
<stop stop-color="#00C0FC"/>
<stop offset="1" stop-color="#0039BA"/>
</linearGradient>
<linearGradient id="paint22_linear_130_489" x1="100.917" y1="120.625" x2="100.917" y2="178.477" gradientUnits="userSpaceOnUse">
<stop stop-color="#00C0FC"/>
<stop offset="1" stop-color="#0039BA"/>
</linearGradient>
<linearGradient id="paint23_linear_130_489" x1="170.926" y1="121.062" x2="170.926" y2="178.585" gradientUnits="userSpaceOnUse">
<stop stop-color="#00C0FC"/>
<stop offset="1" stop-color="#0039BA"/>
</linearGradient>
</defs>
</svg>
