<svg width="805" height="737" viewBox="0 0 805 737" fill="none" xmlns="http://www.w3.org/2000/svg">
<path d="M378.75 0.944831C418.334 -2.38869 456.813 3.39264 494.938 13.6615C566.944 33.382 632.051 77.592 677.64 136.534C709.839 177.609 732.248 225.469 743.167 276.482C753.194 317.962 754.394 360.821 748.64 403.024C736.74 380.822 723.672 359.211 711.475 337.161C709.282 332.358 709.794 326.205 709.072 321.017C704.542 269.488 685.569 220.779 656.966 177.922C635.01 146.316 607.697 118.782 576.255 96.5631C545.676 75.6382 511.742 60.085 475.918 50.5747C427.681 38.6491 377.278 38.5013 328.971 50.1437C292.506 59.5865 257.965 75.2951 226.894 96.5667C185.591 125.95 150 164.938 127.058 210.266C108.806 245.36 97.0428 283.621 93.8918 323.092C93.3318 327.603 93.6823 333.01 91.6744 337.165C79.4792 359.204 66.4087 380.815 54.506 403.028C48.6823 360.369 50.0244 317.034 60.2944 275.133C78.0552 192.095 128.329 116.717 197.287 67.2651C250.187 28.3008 313.473 6.53969 378.75 0.944831Z" fill="white"/>
<path d="M118.466 510.183C150.581 581.889 210.88 640.878 283.536 670.995C332.386 692.152 387.481 699.053 440.171 692.152C486.99 686.638 532.714 667.876 571.934 642.057C620.04 608.986 659.331 563.499 683.104 510.046C690.421 523.123 696.05 537.272 702.816 550.654C703.503 552.727 705.884 555.607 704.82 557.739C656.694 643.385 570.816 707.257 474.4 727.36C434.57 737.047 393.213 738.758 352.718 732.395C322.386 727.382 292.103 719.585 263.827 707.349C198.405 679.152 143.037 631.875 104.975 571.714C102.256 566.644 98.032 561.775 96.3042 556.306C100.926 545.362 106.446 534.741 111.382 523.926C113.751 519.405 115.315 514.183 118.466 510.183Z" fill="white"/>
<path d="M424.027 229.834C409.762 229.478 395.476 229.81 381.21 229.692C376.823 244.395 372.522 258.126 367.867 272.746C366.728 275.127 366.728 275.722 365.02 279.887C368.436 284.053 367.707 282.665 371.282 287.029C374.129 290.004 374.129 290.004 377.545 292.98C377.681 311.35 378.136 328.855 377.911 347.226C374.237 352.925 368.505 357.377 363.987 362.412C363.85 391.948 364.065 421.472 363.883 451.007L365.252 450.394C373.56 444.134 372.99 444.134 377.911 440.563C380.391 470.318 380.391 469.723 387.087 504.403C392.639 524.061 397.532 543.944 402.664 563.719C407.861 543.968 412.711 524.071 418.272 504.423C422.52 478.054 421.95 478.649 427.452 440.563C431.628 444.134 432.198 444.134 439.907 450.345L441.431 451.147C441.376 421.551 441.476 391.982 441.376 362.399C436.855 357.359 431.125 352.924 427.452 347.236C427.224 328.839 427.315 310.42 427.452 292.036C435.044 285.243 436.183 283.458 439.599 279.887C439.029 276.912 438.46 275.722 437.891 274.532C437.127 272.151 437.517 273.341 437.321 272.746C432.538 258.171 428.727 244.371 424.027 229.834Z" fill="white"/>
<path d="M98.9019 362.031L152.005 328.266L106.933 415.496L114.642 441.39L28.4696 602.154L0.635886 572.15L98.9019 362.031Z" fill="white"/>
<path d="M707.064 362.031L654.678 328.266L699.141 415.496L691.537 441.39L776.544 602.154L804.002 572.15L707.064 362.031Z" fill="white"/>
<path d="M116.324 418.592L138.371 375.418L249.521 313.872V323.058L279.834 310.198L258.706 360.72L232.067 383.685V402.976L205.428 411.243L195.323 445.231L155.824 501.266L139.289 475.545L116.324 418.592Z" fill="white"/>
<path d="M688.648 418.49L666.53 375.357L555.016 313.869V323.046L524.603 310.198L545.8 360.673L572.526 383.616V402.889L599.253 411.148L609.39 445.105L649.019 501.086L665.608 475.39L688.648 418.49Z" fill="white"/>
<path d="M265.791 268.458L193.222 333.678L258.442 296.016V306.12L289.675 294.179L287.837 333.678L312.64 330.922L317.232 324.492L312.64 303.364L327.337 285.911H342.953L319.988 311.632L342.953 406.247H350.302V361.236L364.999 346.538V296.016L353.058 283.155L371.43 225.284L364.999 212.424V183.947L358.569 175.68L353.058 254.679L265.791 268.458Z" fill="white"/>
<path d="M539.44 268.39L611.101 333.355L546.697 295.84V305.905L515.856 294.01L517.67 333.355L493.179 330.61L488.643 324.205L493.179 303.16L478.665 285.775H463.245L485.922 311.395L463.245 405.639H455.988V360.804L441.475 346.165V295.84L453.267 283.03L435.125 225.386L441.475 212.576V184.211L447.824 175.976L453.267 254.665L539.44 268.39Z" fill="white"/>
<path d="M343.644 245.264L272.912 256.287L279.343 207.602L262.808 220.462L235.25 214.032L180.134 248.02L199.425 207.602L250.866 162.591L349.156 154.323L343.644 245.264Z" fill="white"/>
<path d="M464.333 245.54L532.982 256.503L526.742 208.082L542.789 220.872L569.536 214.477L623.029 248.28L604.306 208.082L554.38 163.316L458.984 155.093L464.333 245.54Z" fill="white"/>
<path d="M350.301 419.06H344.79L327.336 470.309L300.697 512.565L297.023 531.855L249.256 551.146L256.604 539.204L203.326 572.273L191.384 603.506L251.093 613.61L249.256 605.343H256.604L268.546 618.203L279.569 620.04L351.22 553.902L360.899 483.187L371.429 490.093L366.836 465.291L353.057 473.558L350.301 419.06Z" fill="white"/>
<path d="M456.124 420.553H461.602L478.95 471.511L505.429 513.525L509.081 532.706L556.56 551.887L549.255 540.013L602.212 572.894L614.082 603.949L554.734 613.996L556.56 605.776H549.255L537.386 618.563L526.429 620.389L455.211 554.627L445.59 484.315L435.124 491.182L439.689 466.521L453.385 474.741L456.124 420.553Z" fill="white"/>
</svg>
