<svg width="187" height="72" viewBox="0 0 187 72" fill="none" xmlns="http://www.w3.org/2000/svg">
<path d="M111.479 33.4065C110.937 35.3295 110.09 37.5687 109.566 39.4982C105.111 39.8759 100.976 39.9994 96.5325 40.4948C95.841 39.9012 95.1567 39.2975 94.4795 38.6834C95.7182 33.3385 97.0051 28.006 98.3403 22.6859C97.8758 21.938 97.6443 21.5528 97.1798 20.792C102.459 21.3736 107.747 21.8706 113.042 22.2828C113.499 22.906 113.739 23.2136 114.204 23.8222C113.767 25.3179 113.335 26.8152 112.908 28.3141C110.793 28.2677 108.678 28.2186 106.563 28.1668C106.868 27.0251 107.179 25.8839 107.497 24.7432L104.335 24.549C103.238 28.6378 102.172 32.7347 101.137 36.8398L104.335 36.6293C104.606 35.6149 104.879 34.6011 105.154 33.5878C107.26 33.523 109.368 33.4626 111.479 33.4065Z" fill="url(#paint0_linear_237_1068)"/>
<path d="M114.486 35.4672C113.843 34.992 113.527 34.7499 112.881 34.2581C113.871 30.7636 114.886 27.2785 115.925 23.8028C115.565 23.3237 115.376 23.0829 115.009 22.5936C119.176 22.8867 123.345 23.113 127.518 23.2727C127.891 23.6906 128.078 23.8983 128.451 24.3111C127.397 27.4786 126.358 30.6528 125.334 33.8338C124.631 34.2606 124.279 34.4709 123.576 34.9168C120.547 35.0663 117.517 35.2498 114.486 35.4672ZM120.656 24.9546C119.799 27.6727 118.96 30.398 118.139 33.1305C118.979 33.0965 119.819 33.0634 120.656 33.0311C121.472 30.3631 122.303 27.7003 123.15 25.0425C122.318 25.0144 121.486 24.9851 120.656 24.9546Z" fill="url(#paint1_linear_237_1068)"/>
<path d="M141.785 27.4867C140.111 27.4867 138.438 27.4846 136.764 27.4804C136.999 26.7609 137.235 26.041 137.47 25.3207C136.638 25.3156 135.807 25.3084 134.976 25.2991C134.656 26.2232 134.336 27.1465 134.017 28.069C136.122 28.0758 138.226 28.0796 140.331 28.0805C140.69 28.4627 140.863 28.6602 141.216 29.0475C140.595 30.8652 139.975 32.6838 139.354 34.5032C135.824 34.5228 132.297 34.5894 128.772 34.7033C128.14 34.2739 127.825 34.0573 127.194 33.6203C127.493 32.7148 127.794 31.8093 128.096 30.9039C129.754 30.8843 131.412 30.8686 133.07 30.8567L132.453 32.7182L134.979 32.6851C135.288 31.7677 135.599 30.8504 135.911 29.933C134.087 29.933 132.263 29.9394 130.439 29.9521C129.773 29.5036 129.438 29.2781 128.772 28.8207C129.259 27.3275 129.749 25.8355 130.244 24.3448C129.884 23.9422 129.703 23.7396 129.343 23.3331C133.516 23.4605 137.69 23.5221 141.864 23.5179L142.777 24.4824L141.785 27.4867Z" fill="url(#paint2_linear_237_1068)"/>
<path d="M141.379 34.5013C142.509 31.1589 143.637 27.8157 144.762 24.4715L143.857 23.5096C145.962 23.4901 148.066 23.4548 150.171 23.4038C150.538 23.795 150.721 23.9899 151.087 24.3836L151.238 30.3592C152.585 27.9995 153.913 25.6267 155.22 23.2408C157.188 23.1609 159.156 23.0675 161.123 22.9604C161.49 23.3669 161.672 23.5707 162.039 23.9797C160.926 27.639 159.785 31.288 158.615 34.9269C156.957 34.8479 155.299 34.7787 153.641 34.7192C154.56 31.9162 155.467 29.1059 156.361 26.2884C154.824 29.0966 153.257 31.8856 151.658 34.6555C150.682 34.6258 149.705 34.6007 148.727 34.5803L148.548 28.0543C147.82 30.2169 147.089 32.3778 146.353 34.537C144.695 34.5183 143.037 34.5064 141.379 34.5013Z" fill="url(#paint3_linear_237_1068)"/>
<path d="M160.658 35.0221C161.814 31.3238 162.94 27.6144 164.036 23.894C163.677 23.4697 163.505 23.257 163.15 22.8403C164.807 22.7367 166.463 22.6242 168.118 22.5027C168.491 22.9384 168.677 23.1588 169.048 23.6035C167.946 27.5278 166.805 31.4393 165.627 35.338C163.972 35.2234 162.316 35.118 160.658 35.0221Z" fill="url(#paint4_linear_237_1068)"/>
<path d="M183.483 33.2282C182.958 35.0914 182.138 37.457 181.629 39.3264C177.314 39.6923 173.307 39.616 169.002 40.0959C168.332 39.5209 167.669 38.9359 167.013 38.341C168.213 33.1624 169.46 27.9958 170.753 22.8412C170.303 22.1166 170.079 21.7433 169.629 21.0062C174.744 21.5698 179.737 21.6472 184.868 22.0466C185.31 22.6504 185.673 23.3524 186.123 23.9421C185.7 25.3913 185.282 26.842 184.868 28.2943C182.818 28.2493 180.769 28.2017 178.72 28.1515C179.015 27.0453 179.317 25.9397 179.625 24.8345L176.561 24.6463C175.499 28.6079 174.466 32.5774 173.463 36.5547L176.561 36.3508C176.824 35.3679 177.089 34.3857 177.355 33.4039C179.395 33.3411 181.438 33.2826 183.483 33.2282Z" fill="url(#paint5_linear_237_1068)"/>
<path d="M124.013 46.0637L125.189 51.6941H121.295L120.095 46.049H119.352L117.924 51.6941H113.736L116.62 39.3453L115.88 38.1252H126.513L127.281 39.3049L125.711 46.0637H124.013ZM120.68 40.3781L119.864 43.785H122.008L122.8 40.3781H120.68Z" fill="url(#paint6_linear_237_1068)"/>
<path d="M125.221 48.6591L128.851 39.0649L128.266 38.1252H133.909L134.543 39.0649L135.398 48.6591H132.342L132.074 45.5486H129.701L128.521 48.6591H125.221ZM130.378 43.7777H131.915L131.619 40.4987L130.378 43.7777Z" fill="url(#paint7_linear_237_1068)"/>
<path d="M135.769 48.6591L136.171 47.1439L135.279 39.0849L134.683 38.1252H144.531L145.144 39.0106L144.633 40.2495H139.932L139.07 40.8374L138.57 42.5096H142.675L142.472 43.395L141.437 44.2804H138.57L139.54 48.6677L135.769 48.6591Z" fill="url(#paint8_linear_237_1068)"/>
<path d="M146.298 48.6477L145.593 47.1439L147.035 40.2531H144.338L144.833 39.3623L144.261 38.1252H153.339L153.898 39.0106L153.584 40.2531H150.362L148.378 48.6591L146.298 48.6477Z" fill="url(#paint9_linear_237_1068)"/>
<path d="M164.358 42.9974H160.118L160.713 40.3511H158.608L157.793 43.7248H163.137L163.887 44.9127L162.312 51.6053H153.37L152.036 50.2711L152.8 47.0985H157.002L156.479 49.3391H158.615L159.399 45.991H154.78L153.37 44.6422L154.615 39.2985L153.852 38.1252H164.427L165.204 39.3131L164.358 42.9974Z" fill="url(#paint10_linear_237_1068)"/>
<path d="M36.9417 0.153929C40.8028 -0.171231 44.5561 0.392694 48.2749 1.39434C55.2986 3.31793 61.6493 7.63029 66.0962 13.3796C69.2369 17.3862 71.4228 22.0546 72.4879 27.0306C73.466 31.0767 73.583 35.2572 73.0218 39.3738C71.861 37.2081 70.5862 35.1001 69.3965 32.9494C69.1826 32.4808 69.2326 31.8806 69.1622 31.3746C68.7203 26.3484 66.8696 21.5972 64.0795 17.4168C61.938 14.3338 59.2737 11.6481 56.2069 9.48079C53.2241 7.43972 49.9141 5.92261 46.4197 4.99495C41.7145 3.8317 36.798 3.81728 32.0861 4.95291C28.5292 5.87399 25.16 7.40625 22.1292 9.48113C18.1005 12.3473 14.6288 16.1503 12.3909 20.5717C10.6106 23.9949 9.46318 27.7269 9.15582 31.577C9.10119 32.017 9.13538 32.5444 8.93953 32.9497C7.74998 35.0995 6.47505 37.2074 5.31402 39.3742C4.74596 35.2131 4.87687 30.9861 5.87864 26.899C7.61108 18.7992 12.515 11.4467 19.2413 6.62298C24.4012 2.8223 30.5744 0.699666 36.9417 0.153929Z" fill="url(#paint11_linear_237_1068)"/>
<path d="M11.5543 49.8234C14.6869 56.8178 20.5686 62.5717 27.6557 65.5094C32.4206 67.5731 37.7947 68.2462 42.9342 67.5731C47.5011 67.0352 51.9612 65.2052 55.7868 62.6867C60.4791 59.4608 64.3117 55.0239 66.6306 49.81C67.3443 51.0855 67.8934 52.4657 68.5533 53.771C68.6204 53.9732 68.8526 54.2541 68.7488 54.4621C64.0545 62.8162 55.6777 69.0464 46.273 71.0073C42.3879 71.9522 38.3539 72.1192 34.4038 71.4985C31.4452 71.0095 28.4913 70.2489 25.7332 69.0554C19.3518 66.305 13.951 61.6935 10.2384 55.8252C9.97318 55.3307 9.56111 54.8557 9.39258 54.3223C9.84338 53.2548 10.3818 52.2188 10.8633 51.1639C11.0943 50.7228 11.2469 50.2135 11.5543 49.8234Z" fill="url(#paint12_linear_237_1068)"/>
<path d="M41.3599 22.481C39.9685 22.4462 38.5751 22.4786 37.1835 22.4672C36.7556 23.9013 36.336 25.2407 35.8819 26.6668C35.7709 26.8989 35.7709 26.957 35.6043 27.3633C35.9375 27.7697 35.8663 27.6342 36.2151 28.0599C36.4928 28.3501 36.4928 28.3501 36.826 28.6404C36.8393 30.4323 36.8836 32.1397 36.8616 33.9317C36.5033 34.4876 35.9442 34.9219 35.5035 35.413C35.4902 38.294 35.5111 41.1738 35.4933 44.0548L35.6269 43.9949C36.4372 43.3843 36.3817 43.3843 36.8616 43.036C37.1036 45.9384 37.1036 45.8803 37.7567 49.2632C38.2983 51.1807 38.7756 53.1201 39.2761 55.049C39.783 53.1224 40.2562 51.1817 40.7986 49.2652C41.2129 46.693 41.1574 46.7511 41.694 43.036C42.1014 43.3843 42.157 43.3843 42.9089 43.9902L43.0576 44.0684C43.0522 41.1816 43.062 38.2973 43.0522 35.4117C42.6113 34.9201 42.0524 34.4875 41.694 33.9327C41.6718 32.1382 41.6807 30.3415 41.694 28.5483C42.4346 27.8857 42.5457 27.7116 42.8789 27.3633C42.8233 27.0731 42.7678 26.957 42.7123 26.8409C42.6377 26.6087 42.6758 26.7248 42.6568 26.6668C42.1902 25.2451 41.8184 23.899 41.3599 22.481Z" fill="url(#paint13_linear_237_1068)"/>
<path d="M68.9671 35.3766L63.8573 32.083L68.1943 40.5917L67.4525 43.1174L75.7444 58.7988L78.4227 55.8721L68.9671 35.3766Z" fill="url(#paint14_linear_237_1068)"/>
<path d="M9.6476 35.3779L14.8274 32.0843L10.431 40.593L11.1829 43.1187L2.77745 58.8001L0.062469 55.8734L9.6476 35.3779Z" fill="url(#paint15_linear_237_1068)"/>
<path d="M11.3486 40.8937L13.4991 36.6824L24.3409 30.6791V31.5751L27.2978 30.3207L25.237 35.2488L22.6385 37.4889V39.3705L20.04 40.1769L19.0544 43.4922L15.2015 48.9579L13.5887 46.4491L11.3486 40.8937Z" fill="url(#paint16_linear_237_1068)"/>
<path d="M67.1748 40.8838L65.0173 36.6765L54.14 30.6788V31.5739L51.1734 30.3207L53.241 35.2442L55.848 37.4821V39.362L58.455 40.1677L59.4438 43.4799L63.3093 48.9405L64.9274 46.434L67.1748 40.8838Z" fill="url(#paint17_linear_237_1068)"/>
<path d="M25.9262 26.2454L18.8477 32.6071L25.2094 28.9334V29.9191L28.2559 28.7542L28.0767 32.6071L30.4959 32.3383L30.9439 31.7111L30.4959 29.6503L31.9296 27.9478H33.4528L31.2128 30.4567L33.4528 39.6857H34.1696V35.2952L35.6033 33.8616V28.9334L34.4384 27.679L36.2305 22.0341L35.6033 20.7796V18.002L34.976 17.1956L34.4384 24.9013L25.9262 26.2454Z" fill="url(#paint18_linear_237_1068)"/>
<path d="M52.6195 26.2417L59.6094 32.5785L53.3273 28.9193V29.901L50.319 28.7408L50.4959 32.5785L48.107 32.3108L47.6646 31.686L48.107 29.6333L46.6913 27.9375H45.1871L47.3991 30.4365L45.1871 39.6293H44.4793V35.2561L43.0636 33.828V28.9193L44.2139 27.6697L42.4443 22.047L43.0636 20.7974V18.0307L43.683 17.2274L44.2139 24.903L52.6195 26.2417Z" fill="url(#paint19_linear_237_1068)"/>
<path d="M33.5195 23.9863L26.6201 25.0616L27.2473 20.3126L25.6345 21.5671L22.9464 20.9399L17.5703 24.2551L19.452 20.3126L24.4697 15.9221L34.0571 15.1157L33.5195 23.9863Z" fill="url(#paint20_linear_237_1068)"/>
<path d="M45.2919 24.0122L51.9881 25.0816L51.3794 20.3585L52.9447 21.6061L55.5536 20.9823L60.7715 24.2795L58.9452 20.3585L54.0753 15.9919L44.7701 15.1898L45.2919 24.0122Z" fill="url(#paint21_linear_237_1068)"/>
<path d="M34.1662 40.9371H33.6286L31.9262 45.9361L29.3277 50.0578L28.9693 51.9395L24.31 53.8211L25.0268 52.6563L19.8299 55.882L18.665 58.9284L24.4892 59.9141L24.31 59.1076H25.0268L26.1916 60.3621L27.2668 60.5413L34.2558 54.0899L35.2 47.1922L36.2271 47.8659L35.7791 45.4466L34.435 46.253L34.1662 40.9371Z" fill="url(#paint22_linear_237_1068)"/>
<path d="M44.4898 41.0853H45.0242L46.7164 46.0559L49.2991 50.1541L49.6554 52.0251L54.2866 53.896L53.5741 52.7378L58.7397 55.9451L59.8975 58.9743L54.1085 59.9543L54.2866 59.1524H53.5741L52.4163 60.3997L51.3476 60.5779L44.4008 54.1633L43.4623 47.3048L42.4414 47.9746L42.8867 45.5691L44.2226 46.371L44.4898 41.0853Z" fill="url(#paint23_linear_237_1068)"/>
<defs>
<linearGradient id="paint0_linear_237_1068" x1="104.342" y1="20.792" x2="104.342" y2="40.4948" gradientUnits="userSpaceOnUse">
<stop stop-color="white"/>
<stop offset="1" stop-color="#79829B"/>
</linearGradient>
<linearGradient id="paint1_linear_237_1068" x1="120.666" y1="22.5936" x2="120.666" y2="35.4672" gradientUnits="userSpaceOnUse">
<stop stop-color="white"/>
<stop offset="1" stop-color="#79829B"/>
</linearGradient>
<linearGradient id="paint2_linear_237_1068" x1="134.986" y1="23.3331" x2="134.986" y2="34.7033" gradientUnits="userSpaceOnUse">
<stop stop-color="white"/>
<stop offset="1" stop-color="#79829B"/>
</linearGradient>
<linearGradient id="paint3_linear_237_1068" x1="151.709" y1="22.9604" x2="151.709" y2="34.9269" gradientUnits="userSpaceOnUse">
<stop stop-color="white"/>
<stop offset="1" stop-color="#79829B"/>
</linearGradient>
<linearGradient id="paint4_linear_237_1068" x1="164.853" y1="22.5027" x2="164.853" y2="35.338" gradientUnits="userSpaceOnUse">
<stop stop-color="white"/>
<stop offset="1" stop-color="#79829B"/>
</linearGradient>
<linearGradient id="paint5_linear_237_1068" x1="176.568" y1="21.0062" x2="176.568" y2="40.0959" gradientUnits="userSpaceOnUse">
<stop stop-color="white"/>
<stop offset="1" stop-color="#79829B"/>
</linearGradient>
<linearGradient id="paint6_linear_237_1068" x1="120.509" y1="38.1252" x2="120.509" y2="51.6941" gradientUnits="userSpaceOnUse">
<stop stop-color="white"/>
<stop offset="1" stop-color="#79829B"/>
</linearGradient>
<linearGradient id="paint7_linear_237_1068" x1="130.309" y1="38.1252" x2="130.309" y2="48.6591" gradientUnits="userSpaceOnUse">
<stop stop-color="white"/>
<stop offset="1" stop-color="#79829B"/>
</linearGradient>
<linearGradient id="paint8_linear_237_1068" x1="139.913" y1="38.1252" x2="139.913" y2="48.6677" gradientUnits="userSpaceOnUse">
<stop stop-color="white"/>
<stop offset="1" stop-color="#79829B"/>
</linearGradient>
<linearGradient id="paint9_linear_237_1068" x1="149.079" y1="38.1252" x2="149.079" y2="48.6591" gradientUnits="userSpaceOnUse">
<stop stop-color="white"/>
<stop offset="1" stop-color="#79829B"/>
</linearGradient>
<linearGradient id="paint10_linear_237_1068" x1="158.62" y1="38.1252" x2="158.62" y2="51.6053" gradientUnits="userSpaceOnUse">
<stop stop-color="white"/>
<stop offset="1" stop-color="#79829B"/>
</linearGradient>
<linearGradient id="paint11_linear_237_1068" x1="39.1683" y1="0.0617676" x2="39.1683" y2="39.3742" gradientUnits="userSpaceOnUse">
<stop stop-color="white"/>
<stop offset="1" stop-color="#79829B"/>
</linearGradient>
<linearGradient id="paint12_linear_237_1068" x1="39.0839" y1="49.81" x2="39.0839" y2="71.8659" gradientUnits="userSpaceOnUse">
<stop stop-color="white"/>
<stop offset="1" stop-color="#79829B"/>
</linearGradient>
<linearGradient id="paint13_linear_237_1068" x1="39.2755" y1="22.4644" x2="39.2755" y2="55.049" gradientUnits="userSpaceOnUse">
<stop stop-color="white"/>
<stop offset="1" stop-color="#D0EBFC"/>
</linearGradient>
<linearGradient id="paint14_linear_237_1068" x1="70.8827" y1="31.9289" x2="71.4743" y2="58.8925" gradientUnits="userSpaceOnUse">
<stop stop-color="#00C0FC"/>
<stop offset="1" stop-color="#0039BA"/>
</linearGradient>
<linearGradient id="paint15_linear_237_1068" x1="7.70569" y1="31.9302" x2="7.12214" y2="58.8941" gradientUnits="userSpaceOnUse">
<stop stop-color="#00C0FC"/>
<stop offset="1" stop-color="#0039BA"/>
</linearGradient>
<linearGradient id="paint16_linear_237_1068" x1="19.3232" y1="30.3207" x2="19.3232" y2="48.9579" gradientUnits="userSpaceOnUse">
<stop stop-color="#00C0FC"/>
<stop offset="1" stop-color="#0039BA"/>
</linearGradient>
<linearGradient id="paint17_linear_237_1068" x1="59.1741" y1="30.3207" x2="59.1741" y2="48.9405" gradientUnits="userSpaceOnUse">
<stop stop-color="#00C0FC"/>
<stop offset="1" stop-color="#0039BA"/>
</linearGradient>
<linearGradient id="paint18_linear_237_1068" x1="27.5391" y1="17.1956" x2="27.5391" y2="39.6857" gradientUnits="userSpaceOnUse">
<stop stop-color="#00C0FC"/>
<stop offset="1" stop-color="#0039BA"/>
</linearGradient>
<linearGradient id="paint19_linear_237_1068" x1="51.0268" y1="17.2274" x2="51.0268" y2="39.6293" gradientUnits="userSpaceOnUse">
<stop stop-color="#00C0FC"/>
<stop offset="1" stop-color="#0039BA"/>
</linearGradient>
<linearGradient id="paint20_linear_237_1068" x1="25.8137" y1="15.1157" x2="25.8137" y2="25.0616" gradientUnits="userSpaceOnUse">
<stop stop-color="#00C0FC"/>
<stop offset="1" stop-color="#0039BA"/>
</linearGradient>
<linearGradient id="paint21_linear_237_1068" x1="52.7708" y1="15.1898" x2="52.7708" y2="25.0816" gradientUnits="userSpaceOnUse">
<stop stop-color="#00C0FC"/>
<stop offset="1" stop-color="#0039BA"/>
</linearGradient>
<linearGradient id="paint22_linear_237_1068" x1="27.4461" y1="40.9371" x2="27.4461" y2="60.5413" gradientUnits="userSpaceOnUse">
<stop stop-color="#00C0FC"/>
<stop offset="1" stop-color="#0039BA"/>
</linearGradient>
<linearGradient id="paint23_linear_237_1068" x1="51.1694" y1="41.0853" x2="51.1694" y2="60.5779" gradientUnits="userSpaceOnUse">
<stop stop-color="#00C0FC"/>
<stop offset="1" stop-color="#0039BA"/>
</linearGradient>
</defs>
</svg>
