<svg width="197" height="76" viewBox="0 0 197 76" fill="none" xmlns="http://www.w3.org/2000/svg">
<path d="M117.993 36.3516C117.419 38.387 116.523 40.7571 115.968 42.7993C111.253 43.1991 106.876 43.3298 102.173 43.8541C101.441 43.2259 100.717 42.5868 100 41.9369C101.311 36.2797 102.673 30.6355 104.086 25.0045C103.595 24.213 103.35 23.8052 102.858 23C108.446 23.6156 114.043 24.1416 119.647 24.5779C120.131 25.2375 120.385 25.5631 120.877 26.2073C120.415 27.7903 119.958 29.3751 119.505 30.9616C117.267 30.9125 115.028 30.8605 112.79 30.8057C113.112 29.5973 113.441 28.3894 113.778 27.1821L110.431 26.9765C109.271 31.3043 108.142 35.6406 107.046 39.9855L110.431 39.7628C110.718 38.6891 111.007 37.616 111.298 36.5435C113.527 36.475 115.759 36.411 117.993 36.3516Z" fill="url(#paint0_linear_152_32)"/>
<path d="M121.176 38.5328C120.495 38.0298 120.16 37.7736 119.477 37.253C120.525 33.5544 121.598 29.8656 122.698 26.1868C122.317 25.6797 122.117 25.4248 121.729 24.907C126.139 25.2171 130.553 25.4567 134.969 25.6258C135.364 26.0681 135.562 26.2879 135.956 26.7248C134.841 30.0774 133.742 33.4371 132.657 36.804C131.914 37.2557 131.541 37.4782 130.797 37.9502C127.59 38.1085 124.383 38.3027 121.176 38.5328ZM127.706 27.4059C126.799 30.2828 125.911 33.1673 125.042 36.0596C125.932 36.0236 126.82 35.9885 127.706 35.9544C128.57 33.1305 129.45 30.312 130.345 27.4989C129.465 27.4692 128.585 27.4382 127.706 27.4059Z" fill="url(#paint1_linear_152_32)"/>
<path d="M150.07 30.0859C148.298 30.0859 146.527 30.0837 144.756 30.0792C145.005 29.3177 145.254 28.5558 145.503 27.7934C144.623 27.788 143.742 27.7803 142.863 27.7705C142.524 28.7486 142.186 29.7259 141.848 30.7022C144.076 30.7094 146.303 30.7135 148.531 30.7144C148.911 31.1189 149.094 31.328 149.468 31.7379C148.811 33.6619 148.154 35.5867 147.496 37.5125C143.761 37.5331 140.028 37.6037 136.297 37.7242C135.628 37.2697 135.294 37.0404 134.627 36.5779C134.943 35.6195 135.261 34.6612 135.581 33.7028C137.336 33.6821 139.091 33.6655 140.845 33.6529L140.193 35.6231L142.867 35.5881C143.194 34.6171 143.523 33.6461 143.852 32.6752C141.922 32.6752 139.992 32.6819 138.061 32.6954C137.356 32.2207 137.002 31.982 136.297 31.4979C136.812 29.9174 137.331 28.3382 137.855 26.7604C137.474 26.3342 137.282 26.1198 136.9 25.6896C141.318 25.8245 145.735 25.8897 150.153 25.8852L151.12 26.906L150.07 30.0859Z" fill="url(#paint2_linear_152_32)"/>
<path d="M149.64 37.5104C150.836 33.9727 152.03 30.4341 153.221 26.8946L152.263 25.8764C154.491 25.8557 156.719 25.8184 158.946 25.7645C159.334 26.1785 159.528 26.3848 159.915 26.8015L160.075 33.1263C161.501 30.6287 162.906 28.1173 164.29 25.5919C166.374 25.5074 168.456 25.4085 170.538 25.2952C170.926 25.7254 171.119 25.9412 171.507 26.374C170.33 30.2471 169.122 34.1094 167.883 37.9609C166.128 37.8773 164.373 37.804 162.619 37.7411C163.592 34.7742 164.552 31.7997 165.498 28.8176C163.871 31.7899 162.212 34.7419 160.52 37.6736C159.487 37.6422 158.453 37.6156 157.418 37.5941L157.228 30.6867C156.458 32.9757 155.684 35.2629 154.905 37.5482C153.15 37.5284 151.395 37.5158 149.64 37.5104Z" fill="url(#paint3_linear_152_32)"/>
<path d="M170.045 38.0616C171.269 34.1472 172.46 30.2211 173.621 26.2833C173.24 25.8342 173.059 25.609 172.683 25.168C174.437 25.0584 176.19 24.9392 177.941 24.8107C178.336 25.2719 178.533 25.5052 178.926 25.9758C177.759 30.1294 176.552 34.2695 175.305 38.3961C173.553 38.2747 171.8 38.1632 170.045 38.0616Z" fill="url(#paint4_linear_152_32)"/>
<path d="M194.206 36.1629C193.65 38.135 192.782 40.6387 192.243 42.6174C187.676 43.0048 183.434 42.924 178.878 43.4319C178.169 42.8233 177.467 42.2041 176.773 41.5744C178.043 36.0932 179.363 30.6247 180.732 25.1689C180.256 24.402 180.018 24.0069 179.542 23.2267C184.956 23.8232 190.241 23.9052 195.671 24.3279C196.139 24.967 196.524 25.71 197 26.3342C196.552 27.868 196.109 29.4035 195.671 30.9406C193.502 30.893 191.333 30.8427 189.164 30.7896C189.477 29.6187 189.796 28.4484 190.122 27.2787L186.879 27.0795C185.755 31.2726 184.662 35.474 183.599 39.6837L186.879 39.4679C187.157 38.4277 187.437 37.388 187.72 36.3488C189.879 36.2824 192.041 36.2204 194.206 36.1629Z" fill="url(#paint5_linear_152_32)"/>
<path d="M131.259 49.7484L132.504 55.7079H128.383L127.113 49.7329H126.326L124.814 55.7079H120.382L123.434 42.6375L122.651 41.3461H133.906L134.718 42.5947L133.056 49.7484H131.259ZM127.731 43.7306L126.867 47.3366H129.137L129.975 43.7306H127.731Z" fill="url(#paint6_linear_152_32)"/>
<path d="M132.538 52.4955L136.381 42.3407L135.761 41.3461H141.734L142.405 42.3407L143.31 52.4955H140.076L139.791 49.2033H137.28L136.031 52.4955H132.538ZM137.997 47.3289H139.624L139.311 43.8583L137.997 47.3289Z" fill="url(#paint7_linear_152_32)"/>
<path d="M143.702 52.4955L144.129 50.8918L143.184 42.3619L142.553 41.3461H152.977L153.626 42.2832L153.085 43.5945H148.109L147.197 44.2167L146.667 45.9866H151.012L150.797 46.9238L149.702 47.861H146.667L147.695 52.5046L143.702 52.4955Z" fill="url(#paint8_linear_152_32)"/>
<path d="M154.846 52.4834L154.1 50.8918L155.627 43.5983H152.772L153.296 42.6555L152.69 41.3461H162.299L162.891 42.2832L162.558 43.5983H159.148L157.048 52.4955L154.846 52.4834Z" fill="url(#paint9_linear_152_32)"/>
<path d="M173.963 46.503H169.475L170.104 43.7021H167.877L167.014 47.2729H172.67L173.464 48.5302L171.797 55.6138H162.333L160.921 54.2018L161.729 50.8437H166.177L165.623 53.2152H167.884L168.714 49.6715H163.825L162.333 48.244L163.651 42.5879L162.843 41.3461H174.035L174.858 42.6034L173.963 46.503Z" fill="url(#paint10_linear_152_32)"/>
<g filter="url(#filter0_i_152_32)">
<path d="M39.5383 0.0975467C43.6709 -0.246614 47.688 0.350264 51.6682 1.41044C59.1856 3.44644 65.9827 8.01079 70.7422 14.0961C74.1037 18.3368 76.4431 23.278 77.5832 28.5447C78.63 32.8272 78.7552 37.2521 78.1546 41.6092C76.9122 39.317 75.5478 37.0858 74.2745 34.8094C74.0456 34.3135 74.0991 33.6782 74.0237 33.1426C73.5507 27.8226 71.5699 22.7938 68.5838 18.3691C66.2917 15.106 63.4401 12.2634 60.1577 9.96942C56.9653 7.80907 53.4226 6.20332 49.6826 5.22145C44.6467 3.99023 39.3846 3.97497 34.3414 5.17696C30.5346 6.15185 26.9285 7.77366 23.6847 9.96978C19.3728 13.0034 15.6571 17.0286 13.2619 21.7084C11.3565 25.3316 10.1284 29.2817 9.7994 33.3568C9.74092 33.8226 9.77752 34.3808 9.5679 34.8097C8.29473 37.0851 6.93019 39.3162 5.68755 41.6096C5.07956 37.2054 5.21967 32.7313 6.29186 28.4054C8.14607 19.8324 13.3946 12.0502 20.5938 6.94462C26.1164 2.92184 32.7235 0.675174 39.5383 0.0975467Z" fill="url(#paint11_linear_152_32)"/>
<path d="M12.3662 52.6694C15.719 60.0725 22.0142 66.1627 29.5994 69.272C34.6993 71.4563 40.4511 72.1688 45.9519 71.4563C50.8398 70.887 55.6133 68.95 59.7079 66.2844C64.73 62.87 68.8321 58.1738 71.3139 52.6552C72.0778 54.0053 72.6654 55.4661 73.3718 56.8477C73.4436 57.0618 73.6921 57.3591 73.581 57.5792C68.5567 66.4215 59.5911 73.0157 49.5254 75.0912C45.3672 76.0913 41.0496 76.268 36.8219 75.6111C33.6553 75.0935 30.4938 74.2885 27.5418 73.0253C20.7118 70.1141 14.9314 65.2332 10.9578 59.0219C10.674 58.4985 10.2329 57.9958 10.0526 57.4312C10.535 56.3013 11.1113 55.2048 11.6266 54.0883C11.8739 53.6214 12.0372 53.0823 12.3662 52.6694Z" fill="url(#paint12_linear_152_32)"/>
<path d="M44.2666 23.7292C42.7774 23.6925 41.286 23.7268 39.7966 23.7146C39.3386 25.2326 38.8895 26.6502 38.4035 28.1596C38.2847 28.4054 38.2847 28.4668 38.1064 28.8969C38.463 29.327 38.3869 29.1836 38.7602 29.6342C39.0573 29.9414 39.0573 29.9414 39.4139 30.2486C39.4282 32.1452 39.4756 33.9524 39.4521 35.8491C39.0686 36.4374 38.4702 36.8971 37.9985 37.417C37.9842 40.4663 38.0067 43.5144 37.9876 46.5637L38.1306 46.5004C38.9979 45.8541 38.9385 45.8541 39.4521 45.4854C39.7111 48.5574 39.7111 48.4959 40.4101 52.0764C40.9897 54.106 41.5006 56.1588 42.0363 58.2003C42.5789 56.1612 43.0853 54.107 43.6658 52.0786C44.1093 49.3561 44.0498 49.4175 44.6242 45.4854C45.0602 45.8541 45.1197 45.8541 45.9245 46.4954L46.0836 46.5781C46.0778 43.5226 46.0883 40.4698 46.0778 37.4156C45.6059 36.8953 45.0077 36.4373 44.6242 35.8502C44.6004 33.9508 44.61 32.0491 44.6242 30.1511C45.4168 29.4498 45.5357 29.2655 45.8923 28.8969C45.8329 28.5897 45.7734 28.4668 45.714 28.3439C45.6342 28.0982 45.675 28.2211 45.6546 28.1596C45.1552 26.6549 44.7573 25.2301 44.2666 23.7292Z" fill="url(#paint13_linear_152_32)"/>
</g>
<g filter="url(#filter1_i_152_32)">
<path d="M73.8143 37.3785L68.3453 33.8925L72.9872 42.8984L72.1932 45.5717L81.068 62.1694L83.9345 59.0717L73.8143 37.3785Z" fill="url(#paint14_linear_152_32)"/>
<path d="M10.3253 37.3799L15.8692 33.8938L11.1637 42.8997L11.9685 45.573L2.97222 62.1707L0.0663994 59.073L10.3253 37.3799Z" fill="url(#paint15_linear_152_32)"/>
<path d="M12.1459 43.218L14.4475 38.7606L26.0515 32.4065V33.3548L29.2162 32.0271L27.0105 37.2432L24.2294 39.6142V41.6058L21.4482 42.4593L20.3933 45.9683L16.2696 51.7534L14.5434 49.098L12.1459 43.218Z" fill="url(#paint16_linear_152_32)"/>
<path d="M71.8965 43.2075L69.5874 38.7543L57.9454 32.4061V33.3536L54.7704 32.0271L56.9833 37.2383L59.7735 39.607V41.5968L62.5637 42.4495L63.6221 45.9552L67.7593 51.7349L69.4912 49.082L71.8965 43.2075Z" fill="url(#paint17_linear_152_32)"/>
<path d="M27.7485 27.7137L20.1723 34.4472L26.9812 30.5589V31.6021L30.2419 30.3692L30.0501 34.4472L32.6394 34.1627L33.1189 33.4988L32.6394 31.3176L34.1738 29.5156H35.8041L33.4066 32.1711L35.8041 41.9394H36.5713V37.2924L38.1057 35.775V30.5589L36.859 29.2311L38.777 23.2563L38.1057 21.9286V18.9886L37.4344 18.1351L36.859 26.2912L27.7485 27.7137Z" fill="url(#paint18_linear_152_32)"/>
<path d="M56.3181 27.7098L63.7993 34.4169L57.0757 30.5437V31.5829L53.8559 30.3548L54.0453 34.4169L51.4884 34.1335L51.0149 33.4722L51.4884 31.2995L49.9732 29.5046H48.3633L50.7308 32.1497L48.3633 41.8797H47.6057V37.2508L46.0905 35.7394V30.5437L47.3216 29.2212L45.4276 23.2699L46.0905 21.9473V19.0189L46.7534 18.1687L47.3216 26.2928L56.3181 27.7098Z" fill="url(#paint19_linear_152_32)"/>
<path d="M35.8746 25.3226L28.4903 26.4607L29.1616 21.4343L27.4354 22.762L24.5584 22.0981L18.8044 25.6071L20.8183 21.4343L26.1887 16.7872L36.45 15.9337L35.8746 25.3226Z" fill="url(#paint20_linear_152_32)"/>
<path d="M48.475 25.35L55.6419 26.4819L54.9903 21.4828L56.6657 22.8033L59.458 22.143L65.0426 25.633L63.088 21.4828L57.8757 16.861L47.9165 16.0121L48.475 25.35Z" fill="url(#paint21_linear_152_32)"/>
<path d="M36.5677 43.264H35.9923L34.1702 48.5551L31.389 52.9176L31.0054 54.9092L26.0186 56.9008L26.7858 55.6679L21.2236 59.0821L19.9769 62.3066L26.2104 63.3498L26.0186 62.4963H26.7858L28.0325 63.824L29.1833 64.0137L36.6636 57.1853L37.6741 49.8846L38.7734 50.5976L38.2939 48.0369L36.8554 48.8905L36.5677 43.264Z" fill="url(#paint22_linear_152_32)"/>
<path d="M47.6173 43.4208H48.1893L50.0004 48.6818L52.7647 53.0195L53.146 54.9998L58.1027 56.9801L57.3402 55.7542L62.8688 59.1489L64.108 62.3551L57.9121 63.3923L58.1027 62.5437H57.3402L56.101 63.8638L54.9571 64.0524L47.522 57.2629L46.5176 50.0037L45.4249 50.7127L45.9016 48.1666L47.3314 49.0153L47.6173 43.4208Z" fill="url(#paint23_linear_152_32)"/>
</g>
<defs>
<filter id="filter0_i_152_32" x="5.32846" y="0" width="73.186" height="76" filterUnits="userSpaceOnUse" color-interpolation-filters="sRGB">
<feFlood flood-opacity="0" result="BackgroundImageFix"/>
<feBlend mode="normal" in="SourceGraphic" in2="BackgroundImageFix" result="shape"/>
<feColorMatrix in="SourceAlpha" type="matrix" values="0 0 0 0 0 0 0 0 0 0 0 0 0 0 0 0 0 0 127 0" result="hardAlpha"/>
<feOffset/>
<feGaussianBlur stdDeviation="0.501905"/>
<feComposite in2="hardAlpha" operator="arithmetic" k2="-1" k3="1"/>
<feColorMatrix type="matrix" values="0 0 0 0 0 0 0 0 0 0 0 0 0 0 0 0 0 0 1 0"/>
<feBlend mode="normal" in2="shape" result="effect1_innerShadow_152_32"/>
</filter>
<filter id="filter1_i_152_32" x="0.0664062" y="15.9337" width="83.8681" height="48.1188" filterUnits="userSpaceOnUse" color-interpolation-filters="sRGB">
<feFlood flood-opacity="0" result="BackgroundImageFix"/>
<feBlend mode="normal" in="SourceGraphic" in2="BackgroundImageFix" result="shape"/>
<feColorMatrix in="SourceAlpha" type="matrix" values="0 0 0 0 0 0 0 0 0 0 0 0 0 0 0 0 0 0 127 0" result="hardAlpha"/>
<feOffset/>
<feGaussianBlur stdDeviation="0.5"/>
<feComposite in2="hardAlpha" operator="arithmetic" k2="-1" k3="1"/>
<feColorMatrix type="matrix" values="0 0 0 0 0 0 0 0 0 1 0 0 0 0 0.94 0 0 0 1 0"/>
<feBlend mode="normal" in2="shape" result="effect1_innerShadow_152_32"/>
</filter>
<linearGradient id="paint0_linear_152_32" x1="110.438" y1="23" x2="110.438" y2="43.8541" gradientUnits="userSpaceOnUse">
<stop stop-color="white"/>
<stop offset="1" stop-color="#79829B"/>
</linearGradient>
<linearGradient id="paint1_linear_152_32" x1="127.716" y1="24.907" x2="127.716" y2="38.5328" gradientUnits="userSpaceOnUse">
<stop stop-color="white"/>
<stop offset="1" stop-color="#79829B"/>
</linearGradient>
<linearGradient id="paint2_linear_152_32" x1="142.874" y1="25.6896" x2="142.874" y2="37.7242" gradientUnits="userSpaceOnUse">
<stop stop-color="white"/>
<stop offset="1" stop-color="#79829B"/>
</linearGradient>
<linearGradient id="paint3_linear_152_32" x1="160.574" y1="25.2952" x2="160.574" y2="37.9609" gradientUnits="userSpaceOnUse">
<stop stop-color="white"/>
<stop offset="1" stop-color="#79829B"/>
</linearGradient>
<linearGradient id="paint4_linear_152_32" x1="174.486" y1="24.8107" x2="174.486" y2="38.3961" gradientUnits="userSpaceOnUse">
<stop stop-color="white"/>
<stop offset="1" stop-color="#79829B"/>
</linearGradient>
<linearGradient id="paint5_linear_152_32" x1="186.886" y1="23.2267" x2="186.886" y2="43.4319" gradientUnits="userSpaceOnUse">
<stop stop-color="white"/>
<stop offset="1" stop-color="#79829B"/>
</linearGradient>
<linearGradient id="paint6_linear_152_32" x1="127.55" y1="41.3461" x2="127.55" y2="55.7079" gradientUnits="userSpaceOnUse">
<stop stop-color="white"/>
<stop offset="1" stop-color="#79829B"/>
</linearGradient>
<linearGradient id="paint7_linear_152_32" x1="137.924" y1="41.3461" x2="137.924" y2="52.4955" gradientUnits="userSpaceOnUse">
<stop stop-color="white"/>
<stop offset="1" stop-color="#79829B"/>
</linearGradient>
<linearGradient id="paint8_linear_152_32" x1="148.089" y1="41.3461" x2="148.089" y2="52.5046" gradientUnits="userSpaceOnUse">
<stop stop-color="white"/>
<stop offset="1" stop-color="#79829B"/>
</linearGradient>
<linearGradient id="paint9_linear_152_32" x1="157.79" y1="41.3461" x2="157.79" y2="52.4955" gradientUnits="userSpaceOnUse">
<stop stop-color="white"/>
<stop offset="1" stop-color="#79829B"/>
</linearGradient>
<linearGradient id="paint10_linear_152_32" x1="167.889" y1="41.3461" x2="167.889" y2="55.6138" gradientUnits="userSpaceOnUse">
<stop stop-color="white"/>
<stop offset="1" stop-color="#79829B"/>
</linearGradient>
<linearGradient id="paint11_linear_152_32" x1="41.9215" y1="0" x2="41.9215" y2="41.6096" gradientUnits="userSpaceOnUse">
<stop stop-color="white"/>
<stop offset="1" stop-color="#79829B"/>
</linearGradient>
<linearGradient id="paint12_linear_152_32" x1="41.8309" y1="52.6552" x2="41.8309" y2="76" gradientUnits="userSpaceOnUse">
<stop stop-color="white"/>
<stop offset="1" stop-color="#79829B"/>
</linearGradient>
<linearGradient id="paint13_linear_152_32" x1="42.0356" y1="23.7117" x2="42.0356" y2="58.2003" gradientUnits="userSpaceOnUse">
<stop stop-color="white"/>
<stop offset="1" stop-color="#D0EBFC"/>
</linearGradient>
<linearGradient id="paint14_linear_152_32" x1="75.8646" y1="33.7294" x2="76.4838" y2="62.2689" gradientUnits="userSpaceOnUse">
<stop stop-color="#00C0FC"/>
<stop offset="1" stop-color="#0039BA"/>
</linearGradient>
<linearGradient id="paint15_linear_152_32" x1="8.24687" y1="33.7307" x2="7.63605" y2="62.2706" gradientUnits="userSpaceOnUse">
<stop stop-color="#00C0FC"/>
<stop offset="1" stop-color="#0039BA"/>
</linearGradient>
<linearGradient id="paint16_linear_152_32" x1="20.681" y1="32.0271" x2="20.681" y2="51.7534" gradientUnits="userSpaceOnUse">
<stop stop-color="#00C0FC"/>
<stop offset="1" stop-color="#0039BA"/>
</linearGradient>
<linearGradient id="paint17_linear_152_32" x1="63.3334" y1="32.0271" x2="63.3334" y2="51.7349" gradientUnits="userSpaceOnUse">
<stop stop-color="#00C0FC"/>
<stop offset="1" stop-color="#0039BA"/>
</linearGradient>
<linearGradient id="paint18_linear_152_32" x1="29.4747" y1="18.1351" x2="29.4747" y2="41.9394" gradientUnits="userSpaceOnUse">
<stop stop-color="#00C0FC"/>
<stop offset="1" stop-color="#0039BA"/>
</linearGradient>
<linearGradient id="paint19_linear_152_32" x1="54.6135" y1="18.1687" x2="54.6135" y2="41.8797" gradientUnits="userSpaceOnUse">
<stop stop-color="#00C0FC"/>
<stop offset="1" stop-color="#0039BA"/>
</linearGradient>
<linearGradient id="paint20_linear_152_32" x1="27.6272" y1="15.9337" x2="27.6272" y2="26.4607" gradientUnits="userSpaceOnUse">
<stop stop-color="#00C0FC"/>
<stop offset="1" stop-color="#0039BA"/>
</linearGradient>
<linearGradient id="paint21_linear_152_32" x1="56.4796" y1="16.0121" x2="56.4796" y2="26.4819" gradientUnits="userSpaceOnUse">
<stop stop-color="#00C0FC"/>
<stop offset="1" stop-color="#0039BA"/>
</linearGradient>
<linearGradient id="paint22_linear_152_32" x1="29.3751" y1="43.264" x2="29.3751" y2="64.0137" gradientUnits="userSpaceOnUse">
<stop stop-color="#00C0FC"/>
<stop offset="1" stop-color="#0039BA"/>
</linearGradient>
<linearGradient id="paint23_linear_152_32" x1="54.7665" y1="43.4208" x2="54.7665" y2="64.0524" gradientUnits="userSpaceOnUse">
<stop stop-color="#00C0FC"/>
<stop offset="1" stop-color="#0039BA"/>
</linearGradient>
</defs>
</svg>
