<svg width="16" height="16" viewBox="0 0 16 16" fill="none" xmlns="http://www.w3.org/2000/svg">
<path d="M4.00001 3H4.04163C4.45588 3 4.79165 2.66426 4.79165 2.24999V2V0.750013C4.79165 0.335739 4.45588 0 4.04163 0H4.00001C3.58576 0 3.25 0.335739 3.25 0.750013V2V2.24999C3.25 2.66426 3.58576 3 4.00001 3Z" fill="#ADADAD"/>
<path d="M11.75 3H11.7917C12.2059 3 12.5417 2.66426 12.5417 2.24999V2V0.750013C12.5416 0.335739 12.2059 0 11.7916 0H11.75C11.3358 0 11 0.335739 11 0.750013V2V2.24999C11 2.66426 11.3358 3 11.75 3Z" fill="#ADADAD"/>
<path d="M14 2H13.2916V2.24999C13.2916 3.07712 12.6187 3.74999 11.7916 3.74999H11.75C10.9229 3.74999 10.25 3.07712 10.25 2.24999V2H5.54162V2.24999C5.54162 3.07712 4.86873 3.74999 4.04162 3.74999H4C3.17286 3.74999 2.5 3.07712 2.5 2.24999V2H2C0.895503 2 0 2.8955 0 4V14C0 15.1045 0.895503 16 2 16H14C15.1045 16 16 15.1045 16 14V4C16 2.8955 15.1045 2 14 2ZM15 14C15 14.5517 14.5517 15 14 15H2C1.44876 15 1 14.5517 1 14V6H15V14Z" fill="#ADADAD"/>
<path d="M3.99879 9.72926C4.67768 9.72926 5.22804 9.17891 5.22804 8.50001C5.22804 7.82111 4.67768 7.27075 3.99879 7.27075C3.31989 7.27075 2.76953 7.82111 2.76953 8.50001C2.76953 9.17891 3.31989 9.72926 3.99879 9.72926Z" fill="#ADADAD"/>
<path d="M7.99879 9.72926C8.67769 9.72926 9.22804 9.17891 9.22804 8.50001C9.22804 7.82111 8.67769 7.27075 7.99879 7.27075C7.31989 7.27075 6.76953 7.82111 6.76953 8.50001C6.76953 9.17891 7.31989 9.72926 7.99879 9.72926Z" fill="#ADADAD"/>
<path d="M11.9988 9.72926C12.6777 9.72926 13.228 9.17891 13.228 8.50001C13.228 7.82111 12.6777 7.27075 11.9988 7.27075C11.3199 7.27075 10.7695 7.82111 10.7695 8.50001C10.7695 9.17891 11.3199 9.72926 11.9988 9.72926Z" fill="#ADADAD"/>
<path d="M3.99879 13.7293C4.67768 13.7293 5.22804 13.1789 5.22804 12.5C5.22804 11.8211 4.67768 11.2708 3.99879 11.2708C3.31989 11.2708 2.76953 11.8211 2.76953 12.5C2.76953 13.1789 3.31989 13.7293 3.99879 13.7293Z" fill="#ADADAD"/>
<path d="M7.99879 13.7293C8.67769 13.7293 9.22804 13.1789 9.22804 12.5C9.22804 11.8211 8.67769 11.2708 7.99879 11.2708C7.31989 11.2708 6.76953 11.8211 6.76953 12.5C6.76953 13.1789 7.31989 13.7293 7.99879 13.7293Z" fill="#ADADAD"/>
<path d="M11.9988 13.7293C12.6777 13.7293 13.228 13.1789 13.228 12.5C13.228 11.8211 12.6777 11.2708 11.9988 11.2708C11.3199 11.2708 10.7695 11.8211 10.7695 12.5C10.7695 13.1789 11.3199 13.7293 11.9988 13.7293Z" fill="#ADADAD"/>
</svg>
