<svg width="18" height="18" viewBox="0 0 18 18" fill="none" xmlns="http://www.w3.org/2000/svg">
<path d="M17.1422 9.1389H14.9561H14.9551C14.9386 9.1389 14.9222 9.1389 14.9059 9.13889C14.8819 9.13888 14.858 9.13886 14.8343 9.13881C14.1337 9.13808 13.5787 9.13754 13.0795 9.3671C12.5804 9.59664 12.2197 10.0183 11.7644 10.5506L11.7642 10.5508C11.7518 10.5653 11.7393 10.5799 11.7268 10.5945C11.7239 10.5979 11.721 10.6013 11.7181 10.6047C11.7072 10.6175 11.6961 10.6304 11.685 10.6434L11.1358 11.2841C10.561 11.9546 10.3997 12.1205 10.2058 12.2097C10.0119 12.2989 9.781 12.3134 8.89775 12.3134H8.60696C7.72371 12.3134 7.49279 12.2989 7.29887 12.2097C7.10504 12.1205 6.94368 11.9546 6.36887 11.2841L5.81973 10.6434C5.793 10.6122 5.76661 10.5813 5.74053 10.5508L5.7402 10.5505C5.28493 10.0182 4.92428 9.59661 4.42521 9.3671C3.92601 9.13754 3.37109 9.13808 2.67041 9.13881C2.63062 9.1389 2.59036 9.1389 2.54962 9.1389H2.54861H0.362484L0.362475 8.91215C0.362475 6.75507 0.363917 5.20569 0.522445 4.02659C0.678342 2.86705 0.974836 2.168 1.49153 1.65132C2.00821 1.13463 2.70726 0.838132 3.8668 0.682235C5.0459 0.523707 6.59528 0.522265 8.75236 0.522265C10.9094 0.522265 12.4588 0.523707 13.6379 0.682235C14.7974 0.838132 15.4965 1.13463 16.0132 1.65132C16.5299 2.168 16.8264 2.86705 16.9822 4.02659C17.1408 5.20569 17.1422 6.75507 17.1422 8.91215V9.1389Z" fill="white"/>
<path fill-rule="evenodd" clip-rule="evenodd" d="M14.8343 9.13881C14.858 9.13886 14.8819 9.13888 14.9059 9.13889C14.9222 9.1389 14.9386 9.1389 14.9551 9.1389C14.9143 9.1389 14.8741 9.1389 14.8343 9.13881ZM11.7181 10.6047C11.721 10.6013 11.7239 10.5979 11.7268 10.5945C11.7393 10.5799 11.7518 10.5653 11.7642 10.5508C11.7489 10.5687 11.7336 10.5866 11.7181 10.6047Z" fill="white"/>
<path d="M0.365649 10.4994C0.374211 11.8623 0.405812 12.9302 0.522445 13.7977C0.678342 14.9572 0.974836 15.6562 1.49153 16.173C2.00821 16.6897 2.70726 16.9862 3.8668 17.142C5.0459 17.3006 6.59528 17.302 8.75236 17.302C10.9094 17.302 12.4588 17.3006 13.6379 17.142C14.7974 16.9862 15.4965 16.6897 16.0132 16.173C16.5299 15.6562 16.8264 14.9572 16.9822 13.7977C17.0989 12.9302 17.1305 11.8623 17.1391 10.4994H14.9561C14.0728 10.4994 13.8419 10.5139 13.648 10.6032C13.4541 10.6923 13.2928 10.8582 12.718 11.5288L12.1688 12.1695C12.142 12.2007 12.1157 12.2315 12.0896 12.262L12.0894 12.2622C11.6341 12.7946 11.2734 13.2162 10.7743 13.4458C10.2751 13.6753 9.72014 13.6748 9.01947 13.6741C8.98003 13.674 8.94015 13.674 8.89974 13.674H8.89775H8.60696C8.56587 13.674 8.52533 13.674 8.48524 13.6741C7.78457 13.6748 7.22957 13.6753 6.7304 13.4458C6.23133 13.2163 5.87069 12.7946 5.41542 12.2624L5.41508 12.262C5.389 12.2315 5.36262 12.2007 5.33588 12.1695L4.78675 11.5288C4.21193 10.8582 4.05059 10.6923 3.8567 10.6032C3.66282 10.5139 3.43187 10.4994 2.54861 10.4994H0.365649Z" fill="white"/>
</svg>
