<svg width="52" height="41" viewBox="0 0 52 41" fill="none" xmlns="http://www.w3.org/2000/svg">
<g filter="url(#filter0_di_165_485)">
<ellipse cx="35.5408" cy="9.44964" rx="8.01478" ry="8.44964" fill="url(#paint0_linear_165_485)"/>
<path d="M25.8886 17.2329C25.8886 17.2329 26.0889 16.5112 27.8107 16C28.4097 16.6064 29.8007 17.9904 30.8483 18.6461C32.2174 19.5031 32.6242 19.879 35.3121 19.879C38 19.879 42.9254 16.1712 43 16.0856C43.0746 16 45.2212 16.427 47.5 19.0856C49.7788 21.7441 50.5 31.5856 50.5 31.5856L35.3121 31.5612C32.379 31.6414 32.0842 31.8232 32.0495 31.5612C31.0797 24.2391 26.6587 23.7129 24.7763 22.6906C26.5161 20.1346 25.8886 17.2329 25.8886 17.2329Z" fill="url(#paint1_linear_165_485)"/>
<ellipse cx="15.927" cy="17.2673" rx="8.01478" ry="8.44964" fill="url(#paint2_linear_165_485)"/>
<path d="M3.46336 26.7997C5.87349 24.4769 7.45647 23.8679 8.19806 23.7326C8.79702 24.339 10.188 25.7229 11.2357 26.3787C12.6048 27.2357 12.5 27.6116 16 27.6116C19.5 27.6116 23.1877 23.965 23.3137 23.7326C23.4398 23.5001 26.5 25.2231 28.5 27.6116C30.5 30 30.5 32.2959 30.5 36C30.5 39.7041 30 38.5 28.5 39.2937C27 40.0874 6.3983 39.4862 4.39032 39.2937C2.38235 39.1013 1.30992 37.2089 1.0247 36.2867C0.896345 34.0315 1.20439 28.9767 3.46336 26.7997Z" fill="url(#paint3_linear_165_485)"/>
</g>
<defs>
<filter id="filter0_di_165_485" x="0.296633" y="0.296679" width="50.9067" height="40.0999" filterUnits="userSpaceOnUse" color-interpolation-filters="sRGB">
<feFlood flood-opacity="0" result="BackgroundImageFix"/>
<feColorMatrix in="SourceAlpha" type="matrix" values="0 0 0 0 0 0 0 0 0 0 0 0 0 0 0 0 0 0 127 0" result="hardAlpha"/>
<feOffset/>
<feGaussianBlur stdDeviation="0.351661"/>
<feComposite in2="hardAlpha" operator="out"/>
<feColorMatrix type="matrix" values="0 0 0 0 0 0 0 0 0 0 0 0 0 0 0 0 0 0 1 0"/>
<feBlend mode="normal" in2="BackgroundImageFix" result="effect1_dropShadow_165_485"/>
<feBlend mode="normal" in="SourceGraphic" in2="effect1_dropShadow_165_485" result="shape"/>
<feColorMatrix in="SourceAlpha" type="matrix" values="0 0 0 0 0 0 0 0 0 0 0 0 0 0 0 0 0 0 127 0" result="hardAlpha"/>
<feOffset/>
<feGaussianBlur stdDeviation="0.17583"/>
<feComposite in2="hardAlpha" operator="arithmetic" k2="-1" k3="1"/>
<feColorMatrix type="matrix" values="0 0 0 0 0 0 0 0 0 0 0 0 0 0 0 0 0 0 1 0"/>
<feBlend mode="normal" in2="shape" result="effect2_innerShadow_165_485"/>
</filter>
<linearGradient id="paint0_linear_165_485" x1="35.5408" y1="1" x2="35.5408" y2="17.8993" gradientUnits="userSpaceOnUse">
<stop stop-color="#00C0FC"/>
<stop offset="1" stop-color="#0039BA"/>
</linearGradient>
<linearGradient id="paint1_linear_165_485" x1="37.6381" y1="16" x2="37.6381" y2="31.6976" gradientUnits="userSpaceOnUse">
<stop stop-color="#00C0FC"/>
<stop offset="1" stop-color="#0039BA"/>
</linearGradient>
<linearGradient id="paint2_linear_165_485" x1="15.927" y1="8.81763" x2="15.927" y2="25.7169" gradientUnits="userSpaceOnUse">
<stop stop-color="#00C0FC"/>
<stop offset="1" stop-color="#0039BA"/>
</linearGradient>
<linearGradient id="paint3_linear_165_485" x1="15.75" y1="23.7115" x2="15.75" y2="39.6933" gradientUnits="userSpaceOnUse">
<stop stop-color="#00C0FC"/>
<stop offset="1" stop-color="#0039BA"/>
</linearGradient>
</defs>
</svg>
