<svg width="15" height="15" viewBox="0 0 15 15" fill="none" xmlns="http://www.w3.org/2000/svg">
<path d="M6.75688 1.47055C7.61999 0.607447 8.79061 0.122559 10.0113 0.122559C12.553 0.122559 14.6136 2.1831 14.6136 4.7249C14.6136 5.94552 14.1287 7.11614 13.2656 7.97925L11.4657 9.7791L10.2242 8.53761L12.0241 6.73775C12.558 6.20391 12.8578 5.47987 12.8578 4.7249C12.8578 3.15276 11.5833 1.87829 10.0113 1.87829C9.25626 1.87829 8.53222 2.1782 7.99838 2.71205L6.19852 4.51189L4.95703 3.27041L6.75688 1.47055Z" fill="#ADADAD"/>
<path d="M7.17965 11.579L8.9795 9.7791L10.221 11.0206L8.42114 12.8205C7.55803 13.6836 6.38742 14.1684 5.16679 14.1684C2.62499 14.1684 0.564453 12.1079 0.564453 9.56613C0.564453 8.34549 1.04934 7.17486 1.91244 6.31175L3.7123 4.5119L4.95379 5.75339L3.15394 7.55325C2.62009 8.08709 2.32019 8.81113 2.32019 9.56613C2.32019 11.1382 3.59466 12.4127 5.16679 12.4127C5.92176 12.4127 6.64581 12.1128 7.17965 11.579Z" fill="#ADADAD"/>
<path d="M5.57548 10.3998L10.8427 5.13261L9.6012 3.89111L4.33398 9.15833L5.57548 10.3998Z" fill="#ADADAD"/>
</svg>
