<svg width="12" height="15" viewBox="0 0 12 15" fill="none" xmlns="http://www.w3.org/2000/svg">
<path d="M5.77035 13.5588C5.89749 13.6896 6.07213 13.7634 6.25452 13.7634C6.43691 13.7634 6.61155 13.6896 6.7387 13.5588C6.90197 13.3909 7.06692 13.2227 7.23219 13.0542C8.10797 12.1613 8.99267 11.2592 9.6838 10.3362C10.5125 9.22944 11.1316 8.00696 11.1316 6.60535C11.1316 3.86357 8.96586 1.60823 6.25452 1.60823C3.54319 1.60823 1.37745 3.86357 1.37745 6.60535C1.37745 8.00696 1.99658 9.22944 2.82524 10.3362C3.51637 11.2592 4.40107 12.1613 5.27685 13.0542C5.44212 13.2227 5.60707 13.3909 5.77035 13.5588Z" stroke="#ADADAD" stroke-width="1.35056" stroke-linecap="round" stroke-linejoin="round"/>
<path d="M8.58131 6.97898C8.58131 8.24218 7.55737 9.26613 6.29417 9.26613C5.03097 9.26613 4.00702 8.24218 4.00702 6.97898C4.00702 5.71582 5.03097 4.69184 6.29417 4.69184C7.55736 4.69184 8.58131 5.71582 8.58131 6.97898Z" stroke="#ADADAD" stroke-width="1.08045" stroke-linecap="round" stroke-linejoin="round"/>
</svg>
