<svg width="52" height="52" viewBox="0 0 52 52" fill="none" xmlns="http://www.w3.org/2000/svg">
<path d="M21.2 12.1164V19.8327C21.2 21.1582 20.1255 22.2327 18.8 22.2327H11.6M21.2 12.1164V4.4C21.2 3.07452 20.1255 2 18.8 2H4.4C3.07451 2 2 3.07452 2 4.4V19.8327C2 21.1582 3.07452 22.2327 4.4 22.2327H11.6M21.2 12.1164H30.8M30.8 12.1164V4.4C30.8 3.07452 31.8745 2 33.2 2H47.6C48.9255 2 50 3.07452 50 4.4V19.8327C50 21.1582 48.9255 22.2327 47.6 22.2327H40.4M30.8 12.1164V19.8327C30.8 21.1582 31.8745 22.2327 33.2 22.2327H40.4M40.4 22.2327V30.3469M40.4 30.3469H47.6C48.9255 30.3469 50 31.4214 50 32.7469V47.6C50 48.9255 48.9255 50 47.6 50H33.2C31.8745 50 30.8 48.9255 30.8 47.6V40.4632M40.4 30.3469H33.2C31.8745 30.3469 30.8 31.4214 30.8 32.7469V40.4632M30.8 40.4632H21.2M21.2 40.4632V32.7469C21.2 31.4214 20.1255 30.3469 18.8 30.3469H11.6M21.2 40.4632V47.6C21.2 48.9255 20.1255 50 18.8 50H4.4C3.07452 50 2 48.9255 2 47.6L2 32.7469C2 31.4214 3.07452 30.3469 4.4 30.3469H11.6M11.6 30.3469V22.2327" stroke="url(#paint0_linear_26_431)" stroke-width="4"/>
<defs>
<linearGradient id="paint0_linear_26_431" x1="26" y1="2" x2="26" y2="50" gradientUnits="userSpaceOnUse">
<stop stop-color="#8A8C94"/>
<stop offset="1" stop-color="#4C4F59"/>
</linearGradient>
</defs>
</svg>
