 <svg width="35" height="35" viewBox="0 0 50 41" fill="none" xmlns="http://www.w3.org/2000/svg">
<g filter="url(#filter0_di_26_479)">
<ellipse cx="34.5408" cy="9.44964" rx="8.01478" ry="8.44964" fill="url(#paint0_linear_26_479)"/>
<path d="M24.8886 17.1473C24.8886 17.1473 25.0889 16.4256 26.8107 15.9144C27.4097 16.5208 28.8007 17.9048 29.8483 18.5606C31.2174 19.4176 33.0999 19.7934 34.3121 19.7934V31.4756C31.379 31.5558 31.0842 31.7376 31.0495 31.4756C30.0797 24.1536 25.6587 23.6274 23.7763 22.605C25.5161 20.049 24.8886 17.1473 24.8886 17.1473Z" fill="url(#paint1_linear_26_479)"/>
<path d="M46.5382 18.9814C44.1298 16.6588 42.5479 16.0497 41.8069 15.9144C41.2083 16.5208 39.8183 17.9047 38.7714 18.5604C37.4033 19.4173 35.466 19.7932 34.3109 19.7932V31.4746C37.2418 31.5548 43.6054 31.667 45.6119 31.4746C47.6184 31.2822 48.6901 29.3899 48.9751 28.4678C49.1034 26.2127 48.7956 21.1583 46.5382 18.9814Z" fill="url(#paint2_linear_26_479)"/>
<ellipse cx="15.9269" cy="17.2673" rx="8.01478" ry="8.44964" fill="url(#paint3_linear_26_479)"/>
<path d="M3.46331 26.7997C5.87344 24.4769 7.45642 23.8679 8.19801 23.7325C8.79698 24.339 10.188 25.7229 11.2356 26.3787C12.6047 27.2357 14.4872 27.6116 15.6994 27.6116V39.2937C12.7663 39.3739 6.39825 39.4862 4.39028 39.2937C2.38231 39.1013 1.30987 37.2089 1.02465 36.2867C0.896299 34.0315 1.20434 28.9767 3.46331 26.7997Z" fill="url(#paint4_linear_26_479)"/>
<path d="M27.9264 26.7995C25.518 24.4769 23.9361 23.8678 23.1951 23.7325C22.5965 24.3389 21.2065 25.7228 20.1596 26.3785C18.7915 27.2355 16.8542 27.6113 15.699 27.6113V39.2927C18.63 39.3729 24.9935 39.4851 27.0001 39.2927C29.0066 39.1003 30.0783 37.208 30.3633 36.2859C30.4916 34.0308 30.1838 28.9764 27.9264 26.7995Z" fill="url(#paint5_linear_26_479)"/>
</g>
<defs>
<filter id="filter0_di_26_479" x="0.296587" y="0.296679" width="49.4066" height="39.8067" filterUnits="userSpaceOnUse" color-interpolation-filters="sRGB">
<feFlood flood-opacity="0" result="BackgroundImageFix"/>
<feColorMatrix in="SourceAlpha" type="matrix" values="0 0 0 0 0 0 0 0 0 0 0 0 0 0 0 0 0 0 127 0" result="hardAlpha"/>
<feOffset/>
<feGaussianBlur stdDeviation="0.351661"/>
<feComposite in2="hardAlpha" operator="out"/>
<feColorMatrix type="matrix" values="0 0 0 0 0 0 0 0 0 0 0 0 0 0 0 0 0 0 1 0"/>
<feBlend mode="normal" in2="BackgroundImageFix" result="effect1_dropShadow_26_479"/>
<feBlend mode="normal" in="SourceGraphic" in2="effect1_dropShadow_26_479" result="shape"/>
<feColorMatrix in="SourceAlpha" type="matrix" values="0 0 0 0 0 0 0 0 0 0 0 0 0 0 0 0 0 0 127 0" result="hardAlpha"/>
<feOffset/>
<feGaussianBlur stdDeviation="0.17583"/>
<feComposite in2="hardAlpha" operator="arithmetic" k2="-1" k3="1"/>
<feColorMatrix type="matrix" values="0 0 0 0 0 0 0 0 0 0 0 0 0 0 0 0 0 0 1 0"/>
<feBlend mode="normal" in2="shape" result="effect2_innerShadow_26_479"/>
</filter>
<linearGradient id="paint0_linear_26_479" x1="34.5408" y1="1" x2="34.5408" y2="17.8993" gradientUnits="userSpaceOnUse">
<stop stop-color="white"/>
<stop offset="1" stop-color="#79829B"/>
</linearGradient>
<linearGradient id="paint1_linear_26_479" x1="29.0442" y1="15.9144" x2="29.0442" y2="31.612" gradientUnits="userSpaceOnUse">
<stop stop-color="white"/>
<stop offset="1" stop-color="#79829B"/>
</linearGradient>
<linearGradient id="paint2_linear_26_479" x1="41.6554" y1="15.9144" x2="41.6554" y2="31.5808" gradientUnits="userSpaceOnUse">
<stop stop-color="white"/>
<stop offset="1" stop-color="#79829B"/>
</linearGradient>
<linearGradient id="paint3_linear_26_479" x1="15.9269" y1="8.81763" x2="15.9269" y2="25.7169" gradientUnits="userSpaceOnUse">
<stop stop-color="white"/>
<stop offset="1" stop-color="#79829B"/>
</linearGradient>
<linearGradient id="paint4_linear_26_479" x1="8.34965" y1="23.7325" x2="8.34965" y2="39.4" gradientUnits="userSpaceOnUse">
<stop stop-color="white"/>
<stop offset="1" stop-color="#79829B"/>
</linearGradient>
<linearGradient id="paint5_linear_26_479" x1="23.0435" y1="23.7325" x2="23.0435" y2="39.399" gradientUnits="userSpaceOnUse">
<stop stop-color="white"/>
<stop offset="1" stop-color="#79829B"/>
</linearGradient>
</defs>
</svg>