<svg width="34" height="33" viewBox="0 0 34 33" fill="none" xmlns="http://www.w3.org/2000/svg">
<path fill-rule="evenodd" clip-rule="evenodd" d="M12.5605 28.6879L15.6785 31.8224C16.7399 32.8673 17.0385 32.8673 18.0999 31.8224L21.2178 28.6879C21.5827 28.3064 21.9642 28.1572 22.4617 28.1572H26.9231C28.3992 28.1572 28.6313 27.9249 28.6313 26.4489V21.9875C28.6313 21.49 28.7972 21.1086 29.1621 20.7437L32.2965 17.6257C33.3413 16.5642 33.3413 16.2658 32.2965 15.2043L29.1621 12.0864C28.7972 11.7215 28.6313 11.3401 28.6313 10.8259V6.36455C28.6313 4.88844 28.3992 4.65634 26.9231 4.65634H22.4617C21.9642 4.65634 21.5827 4.52359 21.2178 4.14218L18.0999 1.00762C17.0385 -0.0372586 16.7399 -0.0372586 15.6785 1.00762L12.5605 4.14218C12.1956 4.52359 11.8142 4.65634 11.3001 4.65634H6.8387C5.34611 4.65634 5.13043 4.87189 5.13043 6.36455V10.8259C5.13043 11.3401 4.98119 11.7215 4.61634 12.0864L1.48177 15.2043C0.436967 16.2658 0.436967 16.5642 1.48177 17.6257L4.61634 20.7437C4.98119 21.1086 5.13043 21.49 5.13043 21.9875V26.4489C5.13043 27.9249 5.36267 28.1572 6.8387 28.1572H11.3001C11.8142 28.1572 12.1956 28.3064 12.5605 28.6879ZM23.1251 10.9589L24.2269 12.0608C24.4862 12.3848 24.4862 12.9034 24.2269 13.1626L16.1898 21.0702C15.8657 21.3942 15.4768 21.5239 15.0879 21.5239C14.699 21.5239 14.3102 21.3942 13.9861 21.0702L10.1619 17.246C9.83787 16.9219 9.83787 16.4682 10.1619 16.1442L11.2638 15.0423C11.5879 14.7182 12.0416 14.7182 12.3657 15.0423L15.1528 17.7646L22.0232 10.9589C22.3473 10.6348 22.801 10.6348 23.1251 10.9589Z" fill="#00C2FF"/>
</svg>
