<svg width="34" height="34" viewBox="0 0 34 34" fill="none" xmlns="http://www.w3.org/2000/svg">
<path fill-rule="evenodd" clip-rule="evenodd" d="M13.0937 28.0752L15.9074 30.9038C16.8653 31.8467 17.1347 31.8467 18.0925 30.9038L20.9062 28.0752C21.2354 27.7309 21.5797 27.5962 22.0287 27.5962H26.0547C27.3867 27.5962 27.5962 27.3867 27.5962 26.0547V22.0287C27.5962 21.5797 27.7459 21.2355 28.0752 20.9062L30.9037 18.0925C31.8465 17.1347 31.8465 16.8653 30.9037 15.9075L28.0752 13.0938C27.7459 12.7645 27.5962 12.4203 27.5962 11.9563V7.93034C27.5962 6.59829 27.3867 6.38884 26.0547 6.38884H22.0287C21.5797 6.38884 21.2354 6.26904 20.9062 5.92485L18.0925 3.09619C17.1347 2.15328 16.8653 2.15328 15.9074 3.09619L13.0937 5.92485C12.7645 6.26904 12.4203 6.38884 11.9563 6.38884H7.93031C6.58338 6.38884 6.38875 6.58334 6.38875 7.93034V11.9563C6.38875 12.4203 6.25407 12.7645 5.92483 13.0938L3.09616 15.9075C2.15332 16.8653 2.15332 17.1347 3.09616 18.0925L5.92483 20.9062C6.25407 21.2355 6.38875 21.5797 6.38875 22.0287V26.0547C6.38875 27.3867 6.59833 27.5962 7.93031 27.5962H11.9563C12.4203 27.5962 12.7645 27.7309 13.0937 28.0752ZM22.6273 12.0763L23.6217 13.0707C23.8556 13.3631 23.8556 13.831 23.6217 14.065L16.3688 21.2008C16.0764 21.4933 15.7255 21.6103 15.3745 21.6103C15.0236 21.6103 14.6726 21.4933 14.3802 21.2008L10.9292 17.7499C10.6368 17.4574 10.6368 17.048 10.9292 16.7556L11.9236 15.7612C12.216 15.4688 12.6255 15.4688 12.9179 15.7612L15.433 18.2178L21.633 12.0763C21.9254 11.7839 22.3349 11.7839 22.6273 12.0763Z" fill="white"/>
</svg>
