<svg width="56" height="55" viewBox="0 0 56 55" fill="none" xmlns="http://www.w3.org/2000/svg">
<g filter="url(#filter0_di_26_457)">
<path d="M4 6.01265C4 3.79652 5.79653 2 8.01265 2H42.0996C45.5892 2 48.4181 4.8289 48.4181 8.31853C48.4181 9.86947 47.1608 11.1268 45.6099 11.1268H19.9459C17.7298 11.1268 15.9332 12.9233 15.9332 15.1394V37.5366C15.9332 39.7528 17.7297 41.5493 19.9459 41.5493H45.8179C47.254 41.5493 48.4181 42.7135 48.4181 44.1495C48.4181 47.3806 45.7988 50 42.5676 50H8.01265C5.79652 50 4 48.2035 4 45.9873V6.01265Z" fill="url(#paint0_linear_26_457)"/>
<path fill-rule="evenodd" clip-rule="evenodd" d="M52 17.355C52 15.9699 50.8772 14.847 49.4921 14.847H22.686C21.3009 14.847 20.1781 15.9699 20.1781 17.3549V36.0011C20.1781 37.3862 21.3009 38.509 22.686 38.509H49.4921C50.8772 38.509 52 37.3862 52 36.0011V17.355ZM29.791 30.3963C32.1709 30.3963 34.1002 28.4289 34.1002 26.002C34.1002 23.575 32.1709 21.6076 29.791 21.6076C27.411 21.6076 25.4817 23.575 25.4817 26.002C25.4817 28.4289 27.411 30.3963 29.791 30.3963Z" fill="url(#paint1_linear_26_457)"/>
</g>
<defs>
<filter id="filter0_di_26_457" x="0.90944" y="0.45472" width="54.1811" height="54.1811" filterUnits="userSpaceOnUse" color-interpolation-filters="sRGB">
<feFlood flood-opacity="0" result="BackgroundImageFix"/>
<feColorMatrix in="SourceAlpha" type="matrix" values="0 0 0 0 0 0 0 0 0 0 0 0 0 0 0 0 0 0 127 0" result="hardAlpha"/>
<feOffset dy="1.54528"/>
<feGaussianBlur stdDeviation="1.54528"/>
<feComposite in2="hardAlpha" operator="out"/>
<feColorMatrix type="matrix" values="0 0 0 0 0 0 0 0 0 0 0 0 0 0 0 0 0 0 0.62 0"/>
<feBlend mode="normal" in2="BackgroundImageFix" result="effect1_dropShadow_26_457"/>
<feBlend mode="normal" in="SourceGraphic" in2="effect1_dropShadow_26_457" result="shape"/>
<feColorMatrix in="SourceAlpha" type="matrix" values="0 0 0 0 0 0 0 0 0 0 0 0 0 0 0 0 0 0 127 0" result="hardAlpha"/>
<feOffset dy="-1"/>
<feGaussianBlur stdDeviation="2"/>
<feComposite in2="hardAlpha" operator="arithmetic" k2="-1" k3="1"/>
<feColorMatrix type="matrix" values="0 0 0 0 0.313726 0 0 0 0 0.313726 0 0 0 0 0.313726 0 0 0 0.49 0"/>
<feBlend mode="normal" in2="shape" result="effect2_innerShadow_26_457"/>
</filter>
<linearGradient id="paint0_linear_26_457" x1="26.2091" y1="2" x2="26.2091" y2="50" gradientUnits="userSpaceOnUse">
<stop stop-color="#00C0FC"/>
<stop offset="1" stop-color="#0039BA"/>
</linearGradient>
<linearGradient id="paint1_linear_26_457" x1="36.089" y1="14.847" x2="36.089" y2="38.509" gradientUnits="userSpaceOnUse">
<stop stop-color="#00C0FC"/>
<stop offset="1" stop-color="#0039BA"/>
</linearGradient>
</defs>
</svg>
